<?xml version="1.0" standalone="no"?>
<!DOCTYPE svg PUBLIC "-//W3C//DTD SVG 20010904//EN"
 "http://www.w3.org/TR/2001/REC-SVG-20010904/DTD/svg10.dtd">
<svg version="1.0" xmlns="http://www.w3.org/2000/svg"
 width="5019.000000pt" height="5019.000000pt" viewBox="0 0 5019.000000 5019.000000"
 preserveAspectRatio="xMidYMid meet">
<metadata>
Vandal - Valorant Map Strategy Planner
</metadata>
<g transform="translate(0.000000,5019.000000) scale(0.100000,-0.100000)"
fill="#000000" stroke="none">
<path d="M9279 38891 c0 -10 -2 -12 -6 -4 -3 9 -10 10 -22 3 -10 -5 -21 -6
-25 -3 -3 3 -6 1 -6 -5 0 -7 -3 -11 -8 -9 -10 3 -82 -71 -83 -86 -1 -7 -1 -15
0 -19 0 -5 -3 -8 -8 -8 -5 0 -8 -13 -7 -30 1 -16 -3 -30 -8 -31 -6 0 -2 -4 9
-9 13 -6 15 -9 5 -9 -10 -1 -15 -11 -15 -31 0 -19 4 -29 12 -26 7 3 10 -1 6
-9 -3 -8 -8 -13 -12 -10 -4 2 -8 -2 -8 -10 0 -8 5 -15 11 -15 6 0 4 -5 -4 -10
-8 -5 -10 -10 -5 -10 6 0 10 -18 10 -40 0 -22 -4 -40 -9 -40 -5 0 -3 -7 4 -15
10 -12 10 -15 -1 -16 -8 0 -5 -4 6 -9 13 -6 15 -9 5 -9 -16 -1 -20 -57 -6 -79
4 -7 3 -12 -3 -12 -6 0 -8 -7 -4 -16 3 -9 0 -19 -6 -24 -9 -5 -8 -9 4 -13 10
-5 14 -3 9 5 -5 7 -3 8 6 3 10 -6 9 -11 -4 -21 -13 -9 -14 -13 -4 -17 10 -4
10 -6 -1 -6 -11 -1 -11 -4 -1 -16 7 -8 8 -15 3 -15 -5 0 -9 -9 -9 -20 0 -11 4
-20 8 -20 4 0 8 5 8 12 0 6 3 9 6 6 3 -4 -2 -17 -11 -31 -13 -20 -13 -26 -3
-30 10 -4 9 -6 -1 -6 -11 -1 -10 -5 5 -17 10 -8 14 -13 7 -10 -13 7 -23 -98
-11 -117 4 -7 0 -15 -10 -19 -15 -6 -14 -7 3 -7 15 -1 17 -4 7 -10 -11 -6 -10
-11 3 -25 15 -15 15 -16 -2 -16 -15 0 -16 -2 -3 -10 11 -7 11 -10 2 -10 -9 0
-10 -5 -3 -18 5 -10 6 -24 1 -32 -5 -8 -4 -22 1 -32 7 -13 6 -18 -3 -18 -9 0
-9 -3 2 -10 12 -8 12 -10 1 -10 -11 0 -11 -3 -1 -15 7 -8 9 -15 4 -15 -5 0 -9
-18 -9 -40 0 -27 4 -39 12 -36 7 3 10 -1 6 -9 -3 -8 -8 -13 -12 -10 -4 2 -8
-2 -8 -10 0 -8 5 -15 11 -15 6 0 4 -5 -4 -10 -8 -5 -10 -10 -5 -10 6 0 10 -18
10 -40 0 -22 -4 -40 -9 -40 -5 0 -3 -7 4 -15 10 -12 10 -15 -1 -16 -8 0 -5 -4
6 -9 13 -6 15 -9 5 -9 -16 -1 -20 -57 -6 -79 4 -7 3 -12 -3 -12 -6 0 -8 -7 -4
-16 3 -9 0 -19 -6 -24 -9 -5 -8 -9 4 -13 10 -5 14 -3 9 5 -5 7 -3 8 6 3 10 -6
9 -11 -4 -21 -13 -9 -14 -13 -4 -17 10 -4 10 -6 -1 -6 -11 -1 -11 -4 -1 -16 7
-8 8 -15 3 -15 -5 0 -9 -9 -9 -20 0 -11 4 -20 8 -20 4 0 8 5 8 12 0 6 3 9 6 6
3 -4 -2 -17 -11 -31 -13 -20 -13 -26 -3 -30 10 -4 9 -6 -1 -6 -11 -1 -10 -5 5
-17 10 -8 14 -13 7 -10 -13 7 -23 -98 -11 -117 4 -7 0 -15 -10 -19 -15 -6 -14
-7 3 -7 15 -1 17 -4 7 -10 -11 -6 -10 -11 3 -25 15 -15 15 -16 -2 -16 -15 0
-16 -2 -3 -10 11 -7 11 -10 2 -10 -9 0 -10 -5 -3 -18 5 -10 6 -24 1 -32 -5 -8
-4 -22 1 -32 7 -13 6 -18 -3 -18 -9 0 -9 -3 2 -10 12 -8 12 -10 1 -10 -11 0
-11 -3 -1 -15 7 -8 9 -15 4 -15 -5 0 -9 -18 -9 -40 0 -27 4 -39 12 -36 7 3 10
-1 6 -9 -3 -8 -8 -13 -12 -10 -4 2 -8 -2 -8 -10 0 -8 5 -15 11 -15 6 0 4 -5
-4 -10 -8 -5 -10 -10 -5 -10 6 0 10 -18 10 -40 0 -22 -4 -40 -9 -40 -5 0 -3
-7 4 -15 10 -12 10 -15 -1 -16 -8 0 -5 -4 6 -9 13 -6 15 -9 5 -9 -16 -1 -20
-57 -6 -79 4 -7 3 -12 -3 -12 -6 0 -8 -7 -4 -16 3 -9 0 -19 -6 -24 -9 -5 -8
-9 4 -13 10 -5 14 -3 9 5 -5 7 -3 8 6 3 10 -6 9 -11 -4 -21 -13 -9 -14 -13 -4
-17 10 -4 10 -6 -1 -6 -11 -1 -11 -4 -1 -16 7 -8 8 -15 3 -15 -5 0 -9 -9 -9
-20 0 -11 4 -20 8 -20 4 0 8 5 8 12 0 6 3 9 6 6 3 -4 -2 -17 -11 -31 -13 -20
-13 -26 -3 -30 10 -4 9 -6 -1 -6 -11 -1 -10 -5 5 -17 10 -8 13 -13 7 -9 -10 4
-13 -6 -13 -37 0 -24 -6 -50 -12 -58 -11 -12 -10 -12 2 -3 13 10 15 3 15 -48
0 -32 -4 -59 -9 -59 -6 0 -1 -7 10 -15 19 -15 19 -15 -1 -8 -18 6 -18 5 -6
-10 12 -16 12 -17 -5 -11 -15 5 -16 4 -4 -4 9 -7 13 -24 11 -52 -1 -23 3 -47
9 -55 9 -10 7 -16 -6 -23 -15 -9 -16 -13 -5 -26 9 -11 10 -16 2 -16 -9 0 -9
-5 -1 -20 8 -14 8 -20 0 -20 -6 0 -8 -5 -5 -10 4 -6 12 -8 18 -4 7 3 4 -1 -6
-9 -14 -11 -15 -16 -5 -20 9 -4 10 -6 1 -6 -9 -1 -10 -8 -3 -26 7 -18 6 -25
-3 -25 -8 0 -7 -4 3 -10 8 -5 10 -10 4 -10 -7 0 -9 -15 -4 -45 4 -25 3 -45 -1
-45 -4 0 -5 -9 -2 -20 3 -11 -1 -28 -8 -38 -12 -15 -12 -15 1 -5 13 10 15 3
15 -48 0 -32 -4 -59 -9 -59 -6 0 -1 -7 10 -15 19 -15 19 -15 -1 -8 -18 6 -18
5 -6 -10 12 -16 12 -17 -5 -11 -15 5 -16 4 -4 -4 9 -7 13 -24 11 -52 -1 -23 3
-47 9 -55 9 -10 7 -16 -6 -23 -15 -9 -16 -13 -5 -26 9 -11 10 -16 2 -16 -9 0
-9 -5 -1 -20 8 -14 8 -20 0 -20 -6 0 -8 -5 -5 -10 4 -6 12 -8 18 -4 7 3 4 -1
-6 -9 -14 -11 -15 -16 -5 -20 9 -4 10 -6 1 -6 -9 -1 -10 -8 -3 -26 7 -18 6
-25 -3 -25 -8 0 -7 -4 3 -10 8 -5 10 -10 4 -10 -7 0 -9 -15 -4 -45 4 -25 4
-45 1 -45 -3 0 -6 -20 -6 -45 0 -31 4 -44 12 -41 7 3 10 -1 6 -9 -3 -8 -8 -13
-12 -10 -4 2 -8 -2 -8 -10 0 -8 5 -15 11 -15 6 0 4 -5 -4 -10 -8 -5 -10 -10
-5 -10 6 0 10 -18 10 -40 0 -22 -4 -40 -9 -40 -5 0 -3 -7 4 -15 10 -12 10 -15
-1 -16 -8 0 -5 -4 6 -9 13 -6 15 -9 5 -9 -16 -1 -20 -57 -6 -79 4 -7 3 -12 -3
-12 -6 0 -8 -7 -4 -16 3 -9 0 -19 -6 -24 -9 -5 -8 -9 4 -13 10 -5 14 -3 9 5
-5 7 -3 8 6 3 10 -6 9 -11 -4 -21 -13 -9 -14 -13 -4 -17 10 -4 10 -6 -1 -6
-11 -1 -11 -4 -1 -16 7 -8 8 -15 3 -15 -5 0 -9 -9 -9 -20 0 -11 4 -20 8 -20 4
0 8 5 8 12 0 6 3 9 6 6 3 -4 -2 -17 -11 -31 -13 -20 -13 -26 -3 -30 10 -4 9
-6 -1 -6 -11 -1 -10 -5 5 -17 10 -8 14 -13 7 -10 -13 7 -23 -98 -11 -117 4 -7
0 -15 -10 -19 -15 -6 -14 -7 3 -7 15 -1 17 -4 7 -10 -11 -6 -10 -11 3 -25 15
-15 15 -16 -2 -16 -15 0 -16 -2 -3 -10 11 -7 11 -10 2 -10 -9 0 -10 -5 -3 -18
5 -10 6 -24 1 -32 -5 -8 -4 -22 1 -32 7 -13 6 -18 -3 -18 -9 0 -9 -3 2 -10 12
-8 12 -10 1 -10 -11 0 -11 -3 -1 -15 7 -8 9 -15 4 -15 -5 0 -9 -18 -9 -40 0
-27 4 -39 12 -36 7 3 10 -1 6 -9 -3 -8 -8 -13 -12 -10 -4 2 -8 -2 -8 -10 0 -8
5 -15 11 -15 6 0 4 -5 -4 -10 -8 -5 -10 -10 -5 -10 6 0 10 -18 10 -40 0 -22
-4 -40 -9 -40 -5 0 -3 -7 4 -15 10 -12 10 -15 -1 -16 -8 0 -5 -4 6 -9 13 -6
15 -9 5 -9 -16 -1 -20 -57 -6 -79 4 -7 3 -12 -3 -12 -6 0 -8 -7 -4 -16 3 -9 0
-19 -6 -24 -9 -5 -8 -9 4 -13 10 -5 14 -3 9 5 -5 7 -3 8 6 3 10 -6 9 -11 -4
-21 -13 -9 -14 -13 -4 -17 10 -4 10 -6 -1 -6 -11 -1 -11 -4 -1 -16 7 -8 8 -15
3 -15 -5 0 -9 -9 -9 -20 0 -11 4 -20 8 -20 4 0 8 5 8 12 0 6 3 9 6 6 3 -4 -2
-17 -11 -31 -13 -20 -13 -26 -3 -30 10 -4 9 -6 -1 -6 -11 -1 -10 -5 5 -17 10
-8 14 -13 7 -10 -13 7 -23 -98 -11 -117 4 -7 0 -15 -10 -19 -15 -6 -14 -7 3
-7 15 -1 17 -4 7 -10 -11 -6 -10 -11 3 -25 15 -15 15 -16 -2 -16 -15 0 -16 -2
-3 -10 11 -7 11 -10 2 -10 -9 0 -10 -5 -3 -18 5 -10 6 -24 1 -32 -5 -8 -4 -22
1 -32 7 -13 6 -18 -3 -18 -9 0 -9 -3 2 -10 12 -8 12 -10 1 -10 -11 0 -11 -3
-1 -15 7 -8 9 -15 4 -15 -5 0 -9 -18 -9 -40 0 -27 4 -39 12 -36 7 3 10 -1 6
-9 -3 -8 -8 -13 -12 -10 -4 2 -8 -2 -8 -10 0 -8 5 -15 11 -15 6 0 4 -5 -4 -10
-8 -5 -10 -10 -5 -10 6 0 10 -18 10 -40 0 -22 -4 -40 -9 -40 -5 0 -3 -7 4 -15
10 -12 10 -15 -1 -16 -8 0 -5 -4 6 -9 13 -6 15 -9 5 -9 -16 -1 -20 -57 -6 -79
4 -7 3 -12 -3 -12 -6 0 -8 -7 -4 -16 3 -9 0 -19 -6 -24 -9 -5 -8 -9 4 -13 10
-5 14 -3 9 5 -5 7 -3 8 6 3 10 -6 9 -11 -4 -21 -13 -9 -14 -13 -4 -17 10 -4
10 -6 -1 -6 -11 -1 -11 -4 -1 -16 7 -8 8 -15 3 -15 -5 0 -9 -9 -9 -20 0 -11 4
-20 8 -20 4 0 8 5 8 12 0 6 3 9 6 6 3 -4 -2 -17 -11 -31 -13 -20 -13 -26 -3
-30 10 -4 9 -6 -1 -6 -11 -1 -10 -5 5 -17 10 -8 13 -13 7 -9 -10 4 -13 -6 -13
-37 0 -24 -6 -50 -12 -58 -11 -12 -10 -12 2 -3 13 10 15 3 15 -48 0 -32 -4
-59 -9 -59 -6 0 -1 -7 10 -15 19 -15 19 -15 -1 -8 -18 6 -18 5 -6 -10 12 -16
12 -17 -5 -11 -15 5 -16 4 -4 -4 9 -7 13 -24 11 -52 -1 -23 3 -47 9 -55 9 -10
7 -16 -6 -23 -15 -9 -16 -13 -5 -26 9 -11 10 -16 2 -16 -9 0 -9 -5 -1 -20 8
-14 8 -20 0 -20 -6 0 -8 -5 -5 -10 4 -6 12 -8 18 -4 7 3 4 -1 -6 -9 -14 -11
-15 -16 -5 -20 9 -4 10 -6 1 -6 -9 -1 -10 -8 -3 -26 7 -18 6 -25 -3 -25 -8 0
-7 -4 3 -10 8 -5 10 -10 4 -10 -7 0 -9 -15 -4 -45 4 -25 3 -45 -1 -45 -4 0 -5
-9 -2 -20 3 -11 -1 -28 -8 -38 -12 -15 -12 -15 1 -5 13 10 15 3 15 -48 0 -32
-4 -59 -9 -59 -6 0 -1 -7 10 -15 19 -15 19 -15 -1 -8 -18 6 -18 5 -6 -10 12
-16 12 -17 -5 -11 -15 5 -16 4 -4 -4 9 -7 13 -24 11 -52 -1 -23 3 -47 9 -55 9
-10 7 -16 -6 -23 -15 -9 -16 -13 -5 -26 9 -11 10 -16 2 -16 -9 0 -9 -5 -1 -20
8 -14 8 -20 0 -20 -6 0 -8 -5 -5 -10 4 -6 12 -8 18 -4 7 3 4 -1 -6 -9 -14 -11
-15 -16 -5 -20 9 -4 10 -6 1 -6 -9 -1 -10 -8 -3 -26 7 -18 6 -25 -3 -25 -8 0
-7 -4 3 -10 8 -5 10 -10 4 -10 -7 0 -9 -15 -4 -45 4 -25 4 -45 1 -45 -3 0 -6
-20 -6 -45 0 -31 4 -44 12 -41 7 3 10 -1 6 -9 -3 -8 -8 -13 -12 -10 -4 2 -8
-2 -8 -10 0 -8 5 -15 11 -15 6 0 4 -5 -4 -10 -8 -5 -10 -10 -5 -10 6 0 10 -18
10 -40 0 -22 -4 -40 -9 -40 -5 0 -3 -7 4 -15 10 -12 10 -15 -1 -16 -8 0 -5 -4
6 -9 13 -6 15 -9 5 -9 -16 -1 -20 -57 -6 -79 4 -7 3 -12 -3 -12 -6 0 -8 -7 -4
-16 3 -9 0 -19 -6 -24 -9 -5 -8 -9 4 -13 10 -5 14 -3 9 5 -5 7 -3 8 6 3 10 -6
9 -11 -4 -21 -13 -9 -14 -13 -4 -17 10 -4 10 -6 -1 -6 -11 -1 -11 -4 -1 -16 7
-8 8 -15 3 -15 -5 0 -9 -9 -9 -20 0 -11 4 -20 8 -20 4 0 8 5 8 12 0 6 3 9 6 6
3 -4 -2 -17 -11 -31 -13 -20 -13 -26 -3 -30 10 -4 9 -6 -1 -6 -11 -1 -10 -5 5
-17 10 -8 14 -13 7 -10 -13 7 -23 -98 -11 -117 4 -7 0 -15 -10 -19 -15 -6 -14
-7 3 -7 15 -1 17 -4 7 -10 -11 -6 -10 -11 3 -25 15 -15 15 -16 -2 -16 -15 0
-16 -2 -3 -10 11 -7 11 -10 2 -10 -9 0 -10 -5 -3 -18 5 -10 6 -24 1 -32 -5 -8
-4 -22 1 -32 7 -13 6 -18 -3 -18 -9 0 -9 -3 2 -10 12 -8 12 -10 1 -10 -11 0
-11 -3 -1 -15 7 -8 9 -15 4 -15 -5 0 -9 -18 -9 -40 0 -27 4 -39 12 -36 7 3 10
-1 6 -9 -3 -8 -8 -13 -12 -10 -4 2 -8 -2 -8 -10 0 -8 5 -15 11 -15 6 0 4 -5
-4 -10 -8 -5 -10 -10 -5 -10 6 0 10 -18 10 -40 0 -22 -4 -40 -9 -40 -5 0 -3
-7 4 -15 10 -12 10 -15 -1 -16 -8 0 -5 -4 6 -9 13 -6 15 -9 5 -9 -16 -1 -20
-57 -6 -79 4 -7 3 -12 -3 -12 -6 0 -8 -7 -4 -16 3 -9 0 -19 -6 -24 -9 -5 -8
-9 4 -13 10 -5 14 -3 9 5 -5 7 -3 8 6 3 10 -6 9 -11 -4 -21 -13 -9 -14 -13 -4
-17 10 -4 10 -6 -1 -6 -11 -1 -11 -4 -1 -16 7 -8 8 -15 3 -15 -5 0 -9 -9 -9
-20 0 -11 4 -20 8 -20 4 0 8 5 8 12 0 6 3 9 6 6 3 -4 -2 -17 -11 -31 -13 -20
-13 -26 -3 -30 10 -4 9 -6 -1 -6 -11 -1 -10 -5 5 -17 10 -8 14 -13 7 -10 -13
7 -23 -98 -11 -117 4 -7 0 -15 -10 -19 -15 -6 -14 -7 3 -7 15 -1 17 -4 7 -10
-11 -6 -10 -11 3 -25 15 -15 15 -16 -2 -16 -15 0 -16 -2 -3 -10 11 -7 11 -10
2 -10 -9 0 -10 -5 -3 -18 5 -10 6 -24 1 -32 -5 -8 -4 -22 1 -32 7 -13 6 -18
-3 -18 -9 0 -9 -3 2 -10 12 -8 12 -10 1 -10 -11 0 -11 -3 -1 -15 7 -8 9 -15 4
-15 -5 0 -9 -18 -9 -40 0 -27 4 -39 12 -36 7 3 10 -1 6 -9 -3 -8 -8 -13 -12
-10 -4 2 -8 -2 -8 -10 0 -8 5 -15 11 -15 6 0 4 -5 -4 -10 -8 -5 -10 -10 -5
-10 6 0 10 -18 10 -40 0 -22 -4 -40 -9 -40 -5 0 -3 -7 4 -15 10 -12 10 -15 -1
-16 -8 0 -5 -4 6 -9 13 -6 15 -9 5 -9 -16 -1 -20 -57 -6 -79 4 -7 3 -12 -3
-12 -6 0 -8 -7 -4 -16 3 -9 0 -19 -6 -24 -9 -5 -8 -9 4 -13 10 -5 14 -3 9 5
-5 7 -3 8 6 3 10 -6 9 -11 -4 -21 -13 -9 -14 -13 -4 -17 10 -4 10 -6 -1 -6
-11 -1 -11 -4 -1 -16 7 -8 8 -15 3 -15 -5 0 -9 -9 -9 -20 0 -11 4 -20 8 -20 4
0 8 5 8 12 0 6 3 9 6 6 3 -4 -2 -17 -11 -31 -13 -20 -13 -26 -3 -30 10 -4 9
-6 -1 -6 -11 -1 -10 -5 5 -17 10 -8 13 -13 7 -9 -10 4 -13 -6 -13 -37 0 -24
-6 -50 -12 -58 -11 -12 -10 -12 2 -3 13 10 15 3 15 -48 0 -32 -4 -59 -9 -59
-6 0 -1 -7 10 -15 19 -15 19 -15 -1 -8 -18 6 -18 5 -6 -10 12 -16 12 -17 -5
-11 -15 5 -16 4 -4 -4 9 -7 13 -24 11 -52 -1 -23 3 -47 9 -55 9 -10 7 -16 -6
-23 -15 -9 -16 -13 -5 -26 9 -11 10 -16 2 -16 -9 0 -9 -5 -1 -20 8 -14 8 -20
0 -20 -6 0 -8 -5 -5 -10 4 -6 12 -8 18 -4 7 3 4 -1 -6 -9 -14 -11 -15 -16 -5
-20 9 -4 10 -6 1 -6 -9 -1 -10 -8 -3 -26 7 -18 6 -25 -3 -25 -8 0 -7 -4 3 -10
8 -5 10 -10 4 -10 -7 0 -9 -15 -4 -45 4 -25 3 -45 -1 -45 -4 0 -5 -9 -2 -20 3
-11 -1 -28 -8 -38 -12 -15 -12 -15 1 -5 13 10 15 3 15 -48 0 -32 -4 -59 -9
-59 -6 0 -1 -7 10 -15 19 -15 19 -15 -1 -8 -18 6 -18 5 -6 -10 12 -16 12 -17
-5 -11 -15 5 -16 4 -4 -4 9 -7 13 -24 11 -52 -1 -23 3 -47 9 -55 9 -10 7 -16
-6 -23 -15 -9 -16 -13 -5 -26 9 -11 10 -16 2 -16 -9 0 -9 -5 -1 -20 8 -14 8
-20 0 -20 -6 0 -8 -5 -5 -10 4 -6 12 -8 18 -4 7 3 4 -1 -6 -9 -14 -11 -15 -16
-5 -20 9 -4 10 -6 1 -6 -9 -1 -10 -8 -3 -26 7 -18 6 -25 -3 -25 -8 0 -7 -4 3
-10 8 -5 10 -10 4 -10 -7 0 -9 -15 -4 -45 4 -25 4 -45 1 -45 -3 0 -6 -20 -6
-45 0 -31 4 -44 12 -41 7 3 10 -1 6 -9 -3 -8 -8 -13 -12 -10 -4 2 -8 -2 -8
-10 0 -8 5 -15 11 -15 6 0 4 -5 -4 -10 -8 -5 -10 -10 -5 -10 6 0 10 -18 10
-40 0 -22 -4 -40 -9 -40 -5 0 -3 -7 4 -15 10 -12 10 -15 -1 -16 -8 0 -5 -4 6
-9 13 -6 15 -9 5 -9 -11 -1 -15 -14 -15 -55 0 -30 3 -52 8 -49 4 2 7 -1 7 -6
0 -6 -3 -11 -7 -11 -14 0 -6 -82 9 -91 7 -5 8 -9 2 -9 -6 0 -11 -7 -11 -15 0
-8 4 -15 9 -15 5 0 5 -8 0 -17 -6 -9 -6 -24 -2 -32 5 -9 19 -51 32 -93 12 -43
26 -78 30 -78 5 0 8 -11 8 -25 0 -14 5 -25 10 -25 6 0 10 -7 10 -15 0 -8 5
-15 11 -15 5 0 8 -4 4 -9 -3 -5 -1 -12 5 -16 6 -4 8 -11 5 -16 -3 -5 2 -6 11
-2 12 4 15 3 10 -6 -5 -7 0 -18 10 -26 11 -8 15 -15 11 -15 -9 0 8 -22 40 -52
12 -12 20 -25 17 -30 -3 -4 2 -8 10 -8 9 0 16 -4 16 -8 0 -9 26 -44 58 -78 13
-13 20 -24 16 -24 -4 0 3 -8 14 -19 12 -10 19 -21 15 -25 -3 -3 2 -6 12 -6 10
0 15 -3 12 -6 -4 -4 3 -15 15 -25 11 -11 18 -19 13 -19 -4 0 7 -13 24 -29 17
-16 31 -34 31 -40 0 -6 9 -16 20 -23 11 -7 20 -18 20 -25 0 -7 5 -13 12 -13 6
0 8 -3 5 -6 -4 -4 13 -25 36 -47 23 -22 35 -37 27 -32 -8 5 -3 -6 13 -24 15
-18 27 -37 27 -42 0 -6 4 -8 9 -4 12 7 33 -29 23 -40 -4 -5 -1 -5 6 -1 7 4 15
0 19 -10 3 -10 14 -25 22 -34 31 -33 61 -70 55 -70 -3 0 6 -11 20 -24 15 -13
26 -27 26 -32 0 -5 9 -16 20 -24 11 -8 20 -20 20 -27 0 -7 9 -17 20 -23 11 -6
20 -16 20 -23 0 -7 9 -19 20 -27 11 -8 20 -20 20 -26 0 -7 7 -15 16 -18 8 -3
12 -10 9 -16 -3 -5 2 -10 11 -10 10 0 14 -3 11 -6 -4 -4 3 -15 15 -25 11 -11
18 -19 14 -19 -4 0 4 -11 18 -24 15 -13 26 -28 26 -34 0 -6 8 -17 18 -24 9 -7
33 -33 52 -58 19 -25 38 -46 42 -48 4 -2 8 -10 8 -18 0 -8 5 -14 10 -14 6 0
16 -11 22 -25 6 -14 18 -25 25 -25 8 0 11 -4 8 -10 -3 -5 -1 -10 4 -10 6 0 11
-7 11 -15 0 -8 9 -19 20 -25 11 -6 20 -16 20 -22 0 -6 10 -19 22 -29 11 -11
18 -19 15 -19 -4 0 1 -8 11 -18 9 -11 21 -17 26 -14 5 3 6 1 3 -5 -3 -5 5 -21
19 -36 13 -14 24 -31 24 -37 0 -6 5 -8 10 -5 6 3 10 0 10 -8 0 -8 14 -28 30
-45 17 -18 30 -36 30 -42 0 -5 5 -10 10 -10 6 0 16 -11 22 -25 6 -14 18 -25
25 -25 8 0 11 -4 8 -10 -3 -5 -1 -10 4 -10 6 0 11 -6 11 -14 0 -8 7 -17 16
-20 9 -4 14 -9 11 -12 -3 -3 7 -18 22 -33 15 -15 30 -34 34 -44 3 -9 11 -17
16 -17 5 0 13 -9 16 -20 4 -11 11 -18 16 -15 5 4 9 -4 9 -16 0 -12 3 -19 7
-16 5 6 41 -34 36 -40 -1 -1 16 -21 38 -44 21 -23 39 -49 39 -58 0 -14 2 -14
10 -1 8 13 10 13 10 -2 0 -9 11 -30 25 -46 13 -16 22 -32 20 -36 -3 -3 -2 -4
1 -1 9 6 30 -17 38 -43 4 -12 12 -20 17 -17 5 4 12 -2 16 -12 3 -10 19 -31 34
-47 16 -16 26 -33 23 -38 -3 -4 0 -8 6 -8 13 0 41 -25 41 -37 0 -4 14 -23 30
-40 16 -18 29 -35 29 -38 0 -3 11 -18 24 -32 14 -15 22 -31 19 -36 -3 -6 -2
-8 3 -5 9 5 48 -30 51 -45 1 -5 18 -27 37 -50 20 -23 40 -47 45 -53 6 -7 7
-14 5 -17 -3 -3 4 -8 15 -12 12 -3 21 -13 21 -21 0 -8 5 -14 12 -14 6 0 9 -3
5 -6 -3 -3 5 -16 19 -29 13 -12 24 -26 24 -31 0 -5 9 -16 20 -24 11 -8 20 -20
20 -27 0 -7 4 -13 8 -13 5 0 15 -11 22 -25 7 -13 17 -22 22 -19 4 3 8 0 8 -5
0 -18 4 -25 33 -52 15 -14 27 -31 27 -37 0 -7 9 -17 20 -24 11 -7 20 -18 20
-25 0 -7 9 -17 20 -23 11 -6 20 -18 20 -26 0 -8 5 -12 10 -9 6 3 10 -3 10 -15
0 -12 5 -18 10 -15 6 3 10 2 10 -4 0 -6 11 -22 25 -36 14 -14 23 -25 19 -25
-4 0 3 -8 14 -19 12 -10 22 -21 22 -25 0 -4 11 -17 25 -30 13 -13 22 -26 18
-29 -3 -4 -1 -7 6 -7 7 0 9 -4 6 -10 -3 -5 -1 -10 5 -10 13 0 46 -30 33 -30
-4 0 0 -5 10 -11 9 -5 17 -14 17 -20 0 -5 11 -21 25 -35 14 -14 22 -30 19 -36
-4 -7 -2 -8 4 -4 7 4 12 2 12 -4 0 -6 6 -8 13 -4 6 4 9 4 5 -1 -10 -11 11 -47
23 -40 5 4 9 -3 9 -14 0 -12 7 -21 15 -21 8 0 15 -7 15 -15 0 -8 5 -15 10 -15
6 0 10 -7 10 -15 0 -8 9 -20 20 -27 11 -7 20 -18 20 -24 0 -7 7 -15 16 -18 8
-3 13 -10 10 -14 -3 -5 6 -15 19 -22 13 -7 22 -17 19 -22 -3 -4 0 -8 5 -8 6 0
11 -7 11 -15 0 -8 9 -19 20 -25 11 -6 20 -16 20 -23 0 -7 9 -19 20 -27 11 -8
20 -19 20 -26 0 -6 10 -16 23 -22 12 -6 17 -11 10 -11 -7 -1 -2 -11 10 -24 12
-12 33 -37 47 -55 14 -18 42 -52 62 -75 20 -22 35 -44 32 -49 -3 -4 2 -8 11
-8 9 0 13 -4 10 -10 -3 -5 -1 -10 4 -10 6 0 11 -7 11 -16 0 -8 3 -13 8 -11 4
3 13 -1 20 -9 7 -8 9 -14 5 -14 -4 0 0 -5 10 -11 9 -5 17 -16 17 -22 0 -7 9
-19 20 -27 11 -8 20 -18 20 -23 0 -4 15 -22 33 -39 17 -18 31 -34 30 -35 -6
-7 -2 -26 4 -20 7 8 39 -34 35 -45 -1 -5 5 -8 14 -8 8 0 12 -4 9 -10 -3 -5 -2
-10 3 -10 5 0 15 -11 22 -25 7 -13 17 -22 22 -19 7 5 10 -3 7 -22 0 -4 11 -14
25 -24 15 -9 23 -20 19 -23 -3 -4 -1 -7 5 -7 7 0 12 -4 12 -9 0 -6 11 -22 25
-37 13 -14 22 -32 18 -38 -3 -6 -3 -8 2 -4 7 6 35 -14 35 -25 0 -6 44 -59 78
-94 12 -13 22 -28 22 -32 0 -7 21 -32 103 -123 12 -12 12 -18 4 -22 -7 -2 -4
-5 6 -5 9 -1 17 -8 17 -16 0 -8 8 -15 17 -15 9 0 13 -3 10 -6 -4 -4 3 -15 15
-25 11 -11 18 -19 14 -19 -4 0 2 -10 14 -22 11 -12 20 -25 20 -29 0 -4 10 -11
21 -14 17 -6 19 -9 8 -16 -10 -6 -10 -9 -2 -9 7 0 23 -16 36 -35 13 -19 26
-32 29 -29 4 3 9 -4 13 -16 4 -11 17 -32 31 -45 13 -13 24 -29 24 -35 0 -5 5
-10 10 -10 6 0 10 -8 10 -17 0 -15 2 -16 10 -3 8 13 10 12 10 -4 0 -10 8 -26
18 -35 10 -9 29 -32 42 -51 22 -31 37 -49 85 -101 8 -9 15 -21 15 -27 0 -6 9
-17 20 -25 11 -8 17 -17 13 -20 -3 -4 1 -7 11 -7 9 0 15 -4 12 -9 -3 -5 1 -11
9 -15 8 -3 15 -11 15 -18 0 -8 9 -20 20 -28 11 -8 20 -20 20 -26 0 -7 7 -15
16 -18 8 -3 13 -10 9 -15 -3 -5 4 -12 15 -16 11 -4 18 -11 15 -16 -4 -5 1 -12
9 -15 9 -3 13 -10 10 -15 -3 -5 2 -9 11 -9 9 0 13 -4 10 -10 -3 -5 -1 -10 5
-10 6 0 14 -8 17 -17 8 -21 30 -49 61 -76 12 -11 22 -27 22 -34 0 -7 7 -13 15
-13 8 0 14 -4 12 -8 -2 -8 49 -76 81 -108 6 -7 12 -17 12 -22 0 -6 7 -13 16
-16 8 -3 13 -10 9 -15 -3 -5 3 -12 14 -16 10 -3 22 -17 25 -30 4 -14 13 -25
21 -25 7 0 17 -9 20 -20 4 -11 17 -31 30 -44 13 -13 21 -27 18 -30 -4 -3 1 -6
11 -6 9 0 15 -4 12 -9 -4 -5 -3 -11 2 -13 6 -2 38 -42 84 -103 5 -5 20 -24 35
-41 16 -18 35 -42 43 -55 8 -12 23 -31 33 -41 9 -10 17 -22 17 -28 0 -5 7 -10
15 -10 13 0 16 -5 15 -25 -1 -3 17 -24 40 -46 22 -22 40 -46 40 -54 0 -8 4
-15 10 -15 5 0 20 -16 33 -35 13 -19 26 -32 29 -29 4 3 9 -4 13 -16 4 -11 17
-32 31 -45 13 -13 24 -28 24 -33 0 -6 7 -13 16 -16 8 -3 13 -10 9 -15 -3 -5 4
-12 15 -16 11 -4 18 -11 15 -16 -4 -5 -1 -9 4 -9 6 0 11 -7 11 -15 0 -8 7 -15
15 -15 13 0 16 -5 15 -25 -1 -3 17 -23 40 -45 22 -21 40 -44 40 -52 0 -7 9
-19 20 -26 12 -7 18 -17 15 -22 -3 -6 -1 -10 5 -10 15 0 41 -26 33 -34 -4 -3
0 -6 7 -6 7 0 11 -2 8 -5 -3 -3 9 -21 26 -40 48 -52 55 -62 49 -69 -4 -3 1 -6
10 -6 9 0 16 -6 14 -12 -1 -7 4 -12 11 -10 8 1 11 -1 8 -6 -3 -5 8 -22 24 -38
16 -16 30 -35 30 -42 0 -7 5 -10 10 -7 9 5 14 -7 11 -27 0 -4 8 -10 19 -13 11
-4 20 -13 20 -20 0 -8 10 -25 23 -39 12 -13 34 -38 50 -55 15 -16 27 -35 27
-40 0 -6 7 -11 16 -11 8 0 13 -4 9 -9 -3 -5 4 -16 15 -24 11 -7 17 -17 13 -20
-3 -4 -1 -7 6 -7 7 0 11 -7 8 -14 -4 -11 -1 -13 11 -9 9 3 14 3 10 -1 -6 -7
13 -35 55 -78 9 -10 17 -22 17 -28 0 -5 9 -15 20 -22 11 -7 20 -21 20 -30 0
-10 7 -18 15 -18 9 0 19 -8 22 -17 8 -20 28 -46 66 -85 15 -15 25 -28 21 -28
-4 0 3 -8 14 -19 12 -10 22 -22 22 -26 0 -4 10 -16 22 -26 11 -11 18 -19 13
-19 -4 0 -2 -7 5 -15 7 -8 17 -12 24 -8 6 3 8 3 4 -1 -4 -5 -2 -13 3 -20 39
-47 49 -60 49 -68 0 -4 7 -8 16 -8 8 0 13 -4 10 -9 -4 -5 7 -22 24 -38 16 -15
30 -31 30 -36 0 -4 14 -21 30 -39 17 -17 30 -37 30 -45 0 -8 5 -11 10 -8 6 3
10 0 10 -7 0 -8 9 -20 20 -28 11 -8 20 -18 20 -22 0 -8 6 -15 58 -72 12 -14
22 -29 22 -33 0 -5 9 -15 20 -23 11 -8 20 -19 20 -25 0 -6 9 -17 20 -25 11 -8
20 -18 20 -22 0 -8 6 -15 58 -72 12 -14 22 -29 22 -33 0 -5 9 -15 20 -23 11
-8 20 -20 20 -27 0 -7 9 -17 20 -23 11 -6 18 -14 16 -19 -3 -4 4 -13 14 -21
10 -8 17 -17 14 -22 -3 -4 3 -8 12 -8 10 0 15 -3 11 -6 -5 -6 24 -44 56 -73 9
-8 17 -21 17 -29 0 -7 5 -10 10 -7 9 5 11 2 10 -20 0 -3 18 -23 41 -44 22 -22
40 -42 40 -45 -3 -19 0 -28 6 -23 3 4 13 -3 22 -16 9 -12 13 -22 11 -22 -3 -1
11 -17 30 -37 44 -46 62 -68 57 -68 -3 0 13 -19 34 -41 22 -23 39 -48 39 -56
0 -8 5 -11 10 -8 6 3 10 1 10 -5 0 -5 14 -24 30 -42 17 -17 30 -35 30 -40 0
-6 13 -23 30 -38 16 -15 30 -33 30 -39 0 -6 9 -16 20 -23 11 -7 20 -17 20 -23
0 -6 9 -17 20 -25 11 -8 20 -18 20 -22 0 -9 21 -36 63 -81 15 -17 27 -34 27
-38 0 -5 7 -9 15 -9 8 0 15 -5 15 -11 0 -5 -6 -7 -12 -3 -9 5 -9 2 1 -9 7 -9
20 -17 27 -17 8 0 14 -3 13 -7 -4 -30 18 -58 44 -54 4 0 7 -7 7 -17 0 -10 9
-24 19 -32 11 -7 18 -17 15 -22 -3 -4 2 -8 11 -8 9 0 13 -5 10 -10 -3 -6 1
-13 9 -16 9 -3 16 -12 16 -20 0 -8 7 -14 16 -14 8 0 13 -4 10 -9 -3 -5 4 -19
17 -33 49 -53 86 -106 79 -113 -4 -5 -2 -6 3 -3 6 3 18 -3 28 -14 9 -10 15
-18 12 -18 -3 0 0 -6 7 -14 7 -8 16 -12 21 -9 4 2 7 1 6 -4 -3 -19 1 -46 7
-40 7 7 34 -17 34 -30 0 -5 9 -15 20 -23 11 -8 20 -19 20 -25 0 -6 9 -17 20
-25 11 -8 20 -18 20 -23 0 -9 15 -28 50 -62 14 -14 22 -25 17 -25 -4 0 7 -13
23 -29 17 -15 30 -31 30 -35 0 -14 28 -35 35 -28 5 4 5 1 1 -5 -4 -8 3 -23 18
-37 14 -13 26 -28 26 -35 0 -6 5 -11 10 -11 6 0 10 -7 10 -16 0 -8 5 -12 10
-9 6 3 10 -1 10 -9 0 -8 9 -21 20 -29 11 -8 17 -17 13 -20 -3 -4 1 -7 10 -7 9
0 16 -4 14 -9 -1 -5 13 -25 31 -44 17 -20 32 -39 32 -42 0 -5 7 -13 57 -69 13
-14 23 -29 23 -35 0 -5 7 -12 16 -15 9 -4 14 -9 11 -12 -3 -3 6 -19 21 -34 51
-53 97 -113 95 -121 -2 -4 6 -11 17 -14 11 -4 18 -11 15 -16 -4 -5 -1 -9 6 -9
7 0 10 -3 7 -6 -3 -3 12 -23 33 -45 21 -22 39 -44 39 -49 0 -6 13 -22 28 -37
16 -16 32 -36 35 -46 4 -11 12 -15 18 -11 8 4 9 3 5 -5 -4 -6 0 -14 8 -17 9
-3 14 -9 11 -13 -2 -4 5 -14 16 -21 10 -8 19 -20 19 -28 0 -7 7 -15 15 -18 8
-4 12 -10 9 -15 -3 -5 -1 -9 5 -9 6 0 21 -16 34 -35 13 -19 27 -32 30 -28 4 3
7 0 7 -8 0 -8 14 -28 30 -46 17 -18 30 -37 30 -42 0 -6 5 -11 10 -11 6 0 10
-7 10 -16 0 -8 5 -12 10 -9 6 3 10 1 10 -5 0 -6 11 -22 25 -36 14 -14 22 -30
19 -36 -4 -7 -2 -8 4 -4 7 4 12 4 12 -1 0 -4 16 -25 35 -47 19 -21 32 -42 29
-47 -3 -5 2 -9 10 -9 8 0 18 -9 21 -20 4 -11 11 -18 16 -15 5 4 9 1 9 -5 0
-11 9 -24 43 -61 9 -10 17 -23 17 -29 0 -5 4 -10 8 -10 5 0 15 -11 22 -25 7
-13 17 -22 22 -19 4 3 8 -4 8 -15 0 -11 9 -22 20 -26 11 -4 18 -11 15 -16 -4
-5 1 -12 9 -15 9 -3 13 -10 10 -15 -3 -5 2 -9 11 -9 9 0 13 -5 10 -10 -3 -6 1
-13 9 -16 9 -3 16 -11 16 -18 0 -6 9 -18 20 -26 11 -8 20 -20 20 -26 0 -7 7
-15 16 -18 8 -3 12 -10 9 -16 -3 -5 1 -10 10 -10 9 0 14 -4 11 -8 -2 -4 9 -17
25 -27 16 -11 29 -26 29 -32 0 -7 4 -13 8 -13 8 0 23 -11 69 -50 7 -5 24 -15
38 -22 14 -6 25 -15 25 -20 0 -4 7 -8 15 -8 8 0 15 -4 15 -10 0 -5 3 -9 8 -9
24 4 42 -2 36 -13 -5 -8 -2 -9 9 -5 9 3 22 0 29 -7 8 -7 21 -12 31 -10 9 1 15
-1 12 -6 -6 -10 13 -16 51 -16 23 1 30 -3 26 -13 -4 -11 -1 -11 16 -2 14 8 23
8 27 1 4 -6 14 -10 23 -9 42 4 63 -1 56 -13 -5 -10 -4 -10 6 -1 7 6 19 9 28 6
11 -5 13 -2 7 8 -6 11 -5 12 6 2 7 -7 17 -13 22 -13 4 0 5 6 2 13 -4 6 1 3 9
-7 9 -11 16 -14 16 -8 0 7 7 12 16 12 9 0 12 -5 8 -13 -5 -9 -4 -9 6 0 7 6 19
9 28 6 11 -5 13 -3 7 8 -5 8 0 6 12 -4 16 -14 23 -15 29 -6 5 8 3 10 -6 4 -9
-5 -11 -4 -6 4 4 6 13 8 19 4 22 -14 49 -14 42 -1 -4 7 1 4 9 -6 9 -11 16 -14
16 -8 0 7 7 12 16 12 9 0 12 -5 8 -12 -6 -10 -5 -10 7 -1 8 7 28 10 43 7 20
-3 26 -1 21 8 -4 7 1 4 9 -6 9 -11 16 -14 16 -8 0 7 7 12 16 12 9 0 12 -5 8
-12 -6 -10 -5 -10 7 -1 8 7 28 10 43 7 20 -3 26 -1 21 8 -4 7 1 4 9 -6 9 -11
16 -14 16 -8 0 7 7 12 16 12 9 0 12 -5 8 -13 -6 -9 -5 -9 7 0 14 12 61 9 82
-4 6 -3 7 -1 3 5 -10 16 16 15 33 -1 11 -10 12 -9 6 1 -6 11 1 12 30 8 27 -5
35 -3 30 6 -4 7 1 4 9 -6 9 -11 16 -14 16 -8 0 7 7 12 16 12 8 0 12 -5 8 -11
-3 -6 6 -3 22 7 15 11 25 14 21 8 -5 -8 87 -11 339 -10 190 0 348 -3 351 -7 3
-5 13 -1 23 8 17 15 19 15 29 -2 6 -10 11 -13 11 -7 0 14 48 15 56 2 3 -5 12
-4 20 3 7 6 11 16 7 22 -3 6 -1 7 6 3 6 -4 9 -11 6 -16 -3 -4 2 -11 11 -14 8
-3 12 -2 9 3 -3 6 8 9 25 9 17 -1 33 -5 36 -10 3 -5 15 -1 27 9 11 10 17 13
14 7 -4 -7 0 -15 9 -18 8 -3 12 -2 9 3 -3 6 8 9 25 9 17 -1 33 -5 36 -10 3 -5
14 -2 24 7 17 15 19 15 29 -2 6 -10 11 -13 11 -7 0 14 70 14 70 0 0 -5 6 -1
14 9 13 18 13 18 24 -1 6 -10 12 -13 12 -7 0 13 26 13 47 0 6 -4 15 -2 19 4 5
8 3 9 -6 4 -9 -5 -11 -4 -6 4 4 6 13 8 19 4 22 -14 49 -14 42 -1 -4 7 1 4 9
-6 9 -11 16 -14 16 -8 0 7 7 12 16 12 9 0 12 -5 8 -12 -6 -10 -5 -10 7 -1 8 7
28 10 43 7 20 -3 26 -1 21 8 -4 7 1 4 9 -6 9 -11 16 -14 16 -8 0 7 7 12 16 12
9 0 12 -5 8 -12 -6 -10 -5 -10 7 -1 8 7 28 10 43 7 20 -3 26 -1 21 8 -4 7 1 4
9 -6 9 -11 16 -14 16 -8 0 7 7 12 16 12 9 0 12 -5 8 -12 -6 -10 -5 -10 7 -1
14 12 61 9 82 -4 6 -3 7 -1 3 5 -10 16 16 15 33 0 11 -11 12 -10 6 0 -6 11 1
12 30 8 27 -5 35 -3 30 6 -4 7 1 4 9 -6 9 -11 16 -14 16 -8 0 7 7 12 16 12 8
0 12 -5 8 -11 -3 -6 6 -3 22 7 15 11 25 14 21 8 -8 -14 621 -14 642 0 9 6 12
5 8 -1 -4 -6 0 -14 9 -17 8 -3 12 -2 9 3 -3 6 8 9 25 9 17 -1 33 -5 36 -10 3
-5 14 -2 24 7 17 15 19 15 29 -2 6 -10 11 -13 11 -7 0 14 70 14 70 0 0 -5 6
-1 14 9 13 18 13 18 24 -1 6 -10 12 -13 12 -7 0 13 26 13 47 0 6 -4 15 -2 19
4 5 8 3 9 -6 4 -9 -5 -11 -4 -6 4 4 6 13 8 19 4 22 -14 49 -14 42 -1 -4 7 1 4
9 -6 9 -11 16 -14 16 -8 0 7 7 12 16 12 9 0 12 -5 8 -13 -6 -9 -5 -9 7 0 8 7
28 10 43 7 20 -3 26 -1 21 8 -4 7 1 4 9 -6 9 -11 16 -14 16 -8 0 7 7 12 16 12
9 0 12 -5 8 -12 -6 -10 -4 -10 7 -2 15 12 101 10 121 -2 7 -4 8 -3 4 4 -5 8 1
12 14 12 14 0 19 -4 14 -12 -6 -10 -5 -10 7 -1 14 12 61 9 82 -4 6 -3 7 -1 3
5 -5 8 1 12 14 12 14 0 19 -4 14 -12 -6 -10 -5 -10 7 -1 14 12 61 9 82 -4 6
-3 7 -1 3 5 -9 15 16 16 31 1 8 -8 13 -7 18 2 6 8 4 10 -5 4 -9 -5 -11 -4 -6
4 4 6 13 8 19 4 22 -14 49 -14 42 -1 -4 7 1 4 9 -6 9 -11 16 -14 16 -8 0 7 7
12 16 12 9 0 12 -5 8 -12 -6 -10 -5 -10 7 -1 8 7 28 10 43 7 20 -3 26 -1 21 8
-4 7 1 4 9 -6 9 -11 16 -14 16 -8 0 7 7 12 16 12 9 0 12 -5 8 -12 -5 -7 -3 -8
6 -3 17 11 760 12 767 2 3 -5 13 -1 23 8 17 15 19 15 29 -2 6 -10 11 -13 11
-7 0 14 48 15 56 2 3 -5 12 -4 20 3 7 6 11 16 7 22 -3 6 -1 7 6 3 6 -4 9 -11
6 -16 -3 -4 2 -11 11 -14 8 -3 12 -2 9 3 -3 6 8 9 25 9 17 -1 33 -5 36 -10 3
-5 15 -1 27 9 11 10 17 13 14 7 -4 -7 0 -15 9 -18 8 -3 12 -2 9 3 -3 6 8 9 25
9 17 -1 33 -5 36 -10 3 -5 14 -2 24 7 17 15 19 15 29 -2 6 -10 11 -13 11 -7 0
14 70 14 70 0 0 -5 6 -1 14 9 13 18 13 18 24 -1 6 -10 12 -13 12 -7 0 13 26
13 47 0 6 -4 15 -2 19 4 5 8 3 9 -6 4 -9 -5 -11 -4 -6 4 4 6 13 8 19 4 22 -14
49 -14 42 -1 -4 7 1 4 9 -6 9 -11 16 -14 16 -8 0 7 7 12 16 12 9 0 12 -5 8
-12 -6 -10 -5 -10 7 -1 8 7 28 10 43 7 20 -3 26 -1 21 8 -4 7 1 4 9 -6 9 -11
16 -14 16 -8 0 7 7 12 16 12 9 0 12 -5 8 -13 -6 -9 -5 -9 7 0 8 7 28 10 43 7
20 -3 26 -1 21 8 -4 7 1 4 9 -6 9 -11 16 -14 16 -8 0 7 7 12 16 12 9 0 12 -5
8 -12 -6 -10 -5 -10 7 -1 14 12 61 9 82 -4 6 -3 7 -1 3 5 -10 16 16 15 33 0
11 -11 12 -10 6 0 -6 11 1 12 30 8 27 -5 35 -3 30 6 -4 7 1 4 9 -6 9 -11 16
-14 16 -8 0 7 7 12 16 12 8 0 12 -5 8 -11 -3 -6 6 -3 22 7 15 11 25 14 21 8
-8 -14 621 -14 642 0 9 6 12 5 8 -1 -4 -6 0 -14 9 -17 8 -3 12 -2 9 3 -3 6 8
9 25 9 17 -1 33 -5 36 -10 3 -5 14 -2 24 7 17 15 19 15 29 -2 6 -10 11 -13 11
-7 0 14 70 14 70 0 0 -5 6 -1 14 9 13 18 13 18 24 -1 6 -10 12 -13 12 -7 0 13
26 13 47 0 6 -4 15 -2 19 4 5 8 3 9 -6 4 -9 -5 -11 -4 -6 4 4 6 13 8 19 4 22
-14 49 -14 42 -1 -4 7 1 4 9 -6 9 -11 16 -14 16 -8 0 7 7 12 16 12 9 0 12 -5
8 -12 -6 -10 -5 -10 7 -1 8 7 28 10 43 7 20 -3 26 -1 21 8 -4 7 1 4 9 -6 9
-11 16 -14 16 -8 0 7 7 12 16 12 9 0 12 -5 8 -12 -6 -10 -4 -10 7 -2 15 12
101 10 121 -2 7 -4 8 -3 4 4 -5 8 1 12 14 12 14 0 19 -4 14 -12 -6 -10 -5 -10
7 -1 14 12 61 9 82 -4 6 -3 7 -1 3 5 -5 8 1 12 14 12 14 0 19 -4 14 -12 -6
-10 -5 -10 7 -1 14 12 61 9 82 -4 6 -3 7 -1 3 5 -9 15 16 16 31 1 8 -8 13 -7
18 2 6 8 4 10 -5 4 -9 -5 -11 -4 -6 4 4 6 13 8 19 4 22 -14 49 -14 42 -1 -4 7
1 4 9 -6 9 -11 16 -14 16 -8 0 7 7 12 16 12 9 0 12 -5 8 -12 -6 -10 -5 -10 7
-1 8 7 28 10 43 7 20 -3 26 -1 21 8 -4 7 1 4 9 -6 9 -11 16 -14 16 -8 0 7 7
12 16 12 9 0 12 -5 8 -12 -5 -7 -3 -8 6 -3 17 11 760 12 767 2 3 -5 13 -1 23
8 17 15 19 15 29 -2 6 -10 11 -13 11 -7 0 14 48 15 56 2 3 -5 15 -1 27 9 11
10 17 13 14 7 -4 -7 0 -15 9 -18 8 -3 12 -2 9 3 -3 6 8 9 25 9 17 -1 33 -5 36
-10 3 -5 15 -1 27 9 11 10 17 13 14 7 -4 -7 0 -15 9 -18 9 -3 12 -2 8 5 -4 7
4 9 25 6 17 -3 31 -1 31 4 0 5 3 8 8 7 24 -5 116 68 106 84 -3 4 0 8 6 8 7 0
10 6 7 14 -3 8 1 17 10 20 12 5 13 9 4 20 -9 11 -9 15 0 18 8 3 9 9 4 19 -5 8
-8 26 -6 41 1 16 -2 28 -9 28 -6 0 -8 5 -5 10 3 6 1 10 -5 10 -6 0 -9 4 -6 8
3 5 -6 20 -20 35 -14 15 -23 27 -20 27 3 0 -5 10 -17 23 -12 13 -26 21 -31 19
-5 -3 -6 0 -2 6 3 6 -1 17 -9 25 -8 9 -15 21 -15 27 0 6 -5 8 -10 5 -5 -3 -10
-2 -10 4 0 6 -11 22 -26 36 -14 14 -22 30 -18 37 4 6 3 9 -2 6 -5 -2 -19 6
-31 19 -12 13 -20 23 -17 23 2 0 -3 11 -12 25 -9 14 -19 23 -22 21 -5 -6 -52
61 -52 75 0 6 -5 7 -10 4 -5 -3 -10 1 -10 10 0 8 -7 18 -15 21 -8 4 -12 10 -9
15 3 5 -2 9 -10 9 -14 0 -20 12 -17 33 0 4 -5 7 -13 7 -7 0 -21 15 -30 32 -8
18 -16 29 -16 24 0 -6 -6 -1 -14 9 -8 11 -12 23 -10 27 3 5 -2 8 -10 8 -9 0
-16 5 -16 10 0 6 -9 21 -21 33 -12 12 -28 33 -37 47 -9 14 -22 29 -29 33 -7 4
-13 13 -13 20 0 7 -9 18 -20 25 -12 7 -18 17 -15 22 3 6 -1 10 -9 10 -9 0 -16
4 -16 8 0 10 -29 49 -52 70 -10 9 -18 22 -18 29 0 7 -7 13 -15 13 -8 0 -14 3
-13 7 4 12 -28 54 -35 46 -4 -3 -7 0 -7 8 0 8 -14 28 -30 46 -17 18 -30 34
-30 37 0 8 -30 44 -57 71 -13 12 -23 26 -23 31 0 5 -9 16 -19 24 -11 7 -18 17
-16 21 3 4 -2 9 -10 13 -8 3 -15 13 -15 21 0 9 -4 14 -8 11 -4 -3 -19 13 -32
35 -14 21 -28 39 -32 39 -5 0 -8 7 -8 15 0 8 -7 15 -15 15 -8 0 -15 7 -15 16
0 8 -4 12 -10 9 -5 -3 -7 0 -4 9 3 9 -2 17 -15 21 -12 3 -19 10 -16 15 3 5 -5
16 -17 24 -12 9 -19 16 -15 16 7 0 -21 36 -61 78 -12 13 -23 28 -25 34 -1 6
-15 24 -31 40 -16 15 -26 28 -23 28 4 0 -7 13 -23 29 -17 15 -30 33 -30 40 0
6 -4 11 -10 11 -5 0 -10 7 -10 16 0 8 -4 12 -10 9 -5 -3 -10 -1 -10 5 0 6 -10
22 -22 36 -13 14 -33 36 -44 49 -12 13 -19 26 -16 29 3 3 1 6 -4 6 -5 0 -18
14 -27 30 -10 17 -25 30 -33 30 -8 0 -14 8 -14 18 0 10 -9 24 -19 32 -11 7
-18 17 -15 22 3 4 -3 8 -13 9 -10 0 -13 3 -7 5 7 3 -1 18 -20 37 -17 18 -34
31 -38 29 -4 -2 -5 4 -2 12 4 11 0 16 -11 16 -9 0 -14 4 -10 9 3 5 -4 16 -15
24 -11 7 -17 17 -13 20 3 4 1 7 -5 7 -7 0 -12 7 -12 16 0 8 -4 13 -9 10 -4 -3
-13 6 -19 19 -7 14 -16 25 -22 25 -6 0 -9 4 -6 9 3 5 -6 17 -19 27 -14 10 -25
23 -25 29 0 6 -9 17 -20 25 -11 8 -20 20 -20 27 0 7 -5 13 -11 13 -5 0 -7 5
-4 10 3 6 -1 10 -9 10 -8 0 -17 9 -21 19 -3 11 -12 22 -20 25 -8 3 -15 10 -15
16 0 17 -26 40 -35 32 -5 -4 -5 -1 -1 6 5 8 -1 22 -16 35 -13 12 -26 27 -28
32 -3 6 -8 9 -12 7 -5 -1 -8 4 -8 12 0 8 -14 28 -31 45 -18 19 -27 36 -23 43
4 7 4 10 0 6 -7 -6 -28 13 -64 57 -4 6 -11 18 -15 28 -4 10 -11 15 -17 12 -5
-3 -10 0 -10 8 0 8 -9 22 -20 32 -11 10 -20 23 -20 28 0 15 -48 56 -56 48 -4
-3 -4 -1 0 6 3 6 -5 23 -19 37 -14 14 -25 28 -25 31 0 3 -8 14 -17 24 -45 49
-72 81 -68 81 5 0 -27 40 -57 72 -10 10 -18 20 -18 23 0 6 -38 51 -72 86 -15
15 -25 29 -22 32 3 2 -7 15 -21 28 -13 13 -25 30 -25 37 0 7 -5 10 -10 7 -5
-3 -10 -1 -10 6 0 6 -15 26 -32 43 -18 17 -32 32 -30 33 8 9 -1 23 -17 28 -12
4 -18 12 -14 21 3 8 -1 14 -11 14 -9 0 -16 5 -16 10 0 6 -8 19 -17 29 -10 11
-29 34 -43 51 -14 18 -35 43 -48 57 -12 13 -20 29 -17 34 4 5 -3 9 -15 9 -12
0 -19 4 -15 10 3 5 -2 18 -12 29 -56 60 -68 75 -65 83 1 4 -6 8 -15 8 -14 0
-15 2 -4 9 11 7 10 10 -5 15 -11 3 -24 16 -29 28 -6 13 -17 22 -24 20 -7 -1
-10 2 -6 7 3 6 -3 19 -14 30 -11 11 -17 22 -14 24 2 3 -5 8 -16 12 -12 4 -18
12 -14 21 3 8 -1 14 -11 14 -9 0 -16 7 -16 15 0 8 -9 19 -20 25 -11 6 -20 16
-20 22 0 6 -10 21 -22 34 -42 43 -58 64 -58 74 0 6 -5 10 -12 10 -6 0 -9 3 -6
6 3 3 -13 24 -36 46 -22 23 -34 37 -26 33 8 -4 6 1 -5 13 -11 11 -31 35 -45
52 -14 17 -38 46 -55 64 -32 34 -35 40 -35 56 0 6 -7 10 -15 10 -14 0 -19 12
-16 33 0 4 -3 7 -8 7 -5 0 -22 18 -39 40 -16 22 -32 37 -35 33 -6 -6 -11 20
-8 39 0 5 -3 7 -8 5 -11 -3 -61 50 -53 57 3 3 0 6 -6 6 -6 0 -14 9 -17 20 -3
11 -13 20 -21 20 -8 0 -12 5 -9 10 3 6 -1 13 -9 16 -9 3 -16 12 -16 20 0 8 -4
14 -10 14 -5 0 -10 6 -10 14 0 8 -9 18 -20 21 -11 4 -20 15 -20 26 0 11 -5 17
-10 14 -5 -3 -10 0 -10 8 0 7 -10 23 -22 35 -43 41 -58 59 -58 70 0 7 -4 12
-10 12 -5 0 -10 7 -10 17 0 9 -3 13 -7 10 -8 -8 -48 54 -44 68 1 5 -1 7 -5 3
-7 -8 -37 21 -64 62 -8 12 -21 28 -27 36 -7 7 -13 17 -13 23 0 5 -9 13 -20 16
-11 4 -18 10 -16 14 3 4 -4 13 -14 21 -10 8 -17 17 -14 22 3 4 -2 11 -10 14
-9 3 -16 12 -16 20 0 7 -11 21 -25 30 -14 9 -25 21 -25 26 0 5 -13 23 -30 41
-16 18 -30 36 -30 40 0 5 -14 22 -31 38 -17 16 -28 29 -24 29 5 0 -4 10 -18
23 -15 12 -27 28 -27 35 0 7 -5 12 -11 12 -5 0 -7 5 -4 10 3 6 -1 10 -9 10
-15 0 -21 12 -17 33 1 5 -3 6 -9 2 -5 -3 -10 -2 -10 3 0 5 -14 23 -30 41 -17
17 -28 31 -25 31 3 0 -6 12 -20 27 -14 15 -25 31 -25 35 0 5 -7 8 -15 8 -9 0
-12 6 -8 17 4 10 2 14 -5 9 -6 -3 -13 3 -17 14 -3 11 -11 20 -17 20 -6 0 -8 3
-5 6 3 4 -8 22 -26 40 -47 49 -59 64 -50 64 4 0 -3 7 -15 16 -12 8 -22 20 -22
26 0 6 -10 21 -22 33 -36 35 -78 85 -73 85 3 0 -3 9 -12 19 -9 11 -21 17 -26
14 -6 -3 -7 -1 -3 5 3 6 -1 17 -9 25 -8 9 -15 21 -15 27 0 6 -4 9 -9 6 -4 -3
-13 6 -19 19 -7 14 -16 25 -22 25 -5 0 -10 7 -10 15 0 8 -9 19 -20 25 -11 6
-20 17 -20 25 0 8 -8 19 -17 24 -10 6 -14 11 -8 11 5 0 -1 7 -13 16 -12 8 -22
22 -22 30 0 8 -4 12 -10 9 -5 -3 -10 1 -10 9 0 9 -9 21 -20 28 -11 7 -20 16
-20 20 0 9 -28 44 -52 66 -9 9 -15 19 -12 23 2 4 -5 10 -16 14 -11 4 -18 10
-15 15 3 5 -10 25 -30 44 -19 19 -35 40 -35 45 0 6 -9 15 -20 21 -11 6 -20 16
-20 23 0 7 -8 20 -17 29 -10 9 -29 31 -43 48 -14 18 -35 43 -47 57 -13 13 -23
28 -23 33 0 6 -4 10 -10 10 -5 0 -10 5 -10 10 0 6 -11 21 -25 34 -13 13 -22
26 -18 29 3 4 -1 7 -10 7 -11 0 -14 5 -10 17 4 10 2 14 -4 10 -10 -6 -23 13
-22 29 0 4 -12 15 -28 25 -15 10 -24 19 -19 19 5 0 -1 8 -12 19 -12 10 -19 21
-15 25 3 3 1 6 -5 6 -6 0 -14 9 -17 20 -3 11 -13 20 -22 20 -9 0 -13 6 -10 14
4 9 -1 17 -12 21 -10 3 -23 17 -29 30 -6 14 -16 25 -22 25 -6 0 -9 4 -6 8 6
11 -30 43 -39 34 -3 -4 -3 1 0 10 4 9 0 18 -10 22 -9 3 -13 10 -10 16 3 5 -1
10 -9 10 -9 0 -16 5 -16 11 0 7 -15 26 -32 43 -18 17 -32 32 -30 33 7 8 0 23
-8 18 -5 -3 -10 1 -10 9 0 8 -9 20 -20 26 -11 6 -20 17 -20 24 0 8 -7 17 -16
20 -9 4 -14 9 -11 12 3 3 -10 21 -29 41 -19 19 -34 38 -34 42 0 4 -19 27 -42
51 -24 24 -36 40 -28 36 8 -5 6 1 -5 12 -28 30 -41 46 -41 52 1 3 -14 20 -33
38 -19 17 -31 32 -26 32 4 0 -7 14 -25 30 -18 17 -29 30 -26 30 4 0 -3 11 -16
25 -58 63 -68 75 -68 82 0 5 -18 27 -40 51 -22 23 -40 46 -40 52 0 5 -9 15
-20 22 -11 7 -20 18 -20 25 0 7 -4 13 -10 13 -5 0 -10 7 -10 16 0 8 -4 12 -10
9 -5 -3 -10 -1 -10 5 0 6 -11 22 -25 35 -13 14 -21 25 -18 25 3 0 -4 8 -15 19
-12 10 -19 21 -15 25 3 3 1 6 -5 6 -6 0 -14 9 -17 20 -4 11 -11 18 -16 15 -5
-4 -9 -1 -9 5 0 6 -13 25 -30 43 -16 18 -30 36 -30 40 0 5 -14 22 -31 38 -17
16 -28 29 -24 29 5 0 -4 11 -19 25 -14 13 -26 28 -26 32 0 5 -9 15 -20 23 -11
8 -20 19 -20 25 0 5 -18 29 -40 53 -22 23 -40 45 -40 49 0 3 -7 13 -15 22 -8
9 -26 28 -40 43 -14 15 -25 35 -25 44 0 10 -3 14 -6 11 -9 -9 -45 33 -38 44 3
5 -2 9 -10 9 -8 0 -18 9 -21 20 -4 11 -11 17 -17 14 -6 -4 -8 -2 -5 3 8 12
-38 65 -47 55 -4 -3 -4 1 -1 10 4 11 0 18 -14 23 -12 3 -21 12 -21 19 0 7 -9
22 -20 34 -11 12 -20 26 -20 32 0 6 -4 8 -10 5 -5 -3 -10 -2 -10 2 0 10 -25
44 -61 82 -14 15 -23 34 -21 41 3 7 0 10 -7 6 -6 -4 -11 -3 -11 2 0 5 -13 23
-30 40 -16 18 -30 35 -30 40 0 4 -9 14 -20 22 -11 8 -20 19 -20 24 0 5 -8 15
-17 23 -11 9 -12 11 -3 7 8 -4 -4 11 -28 35 -24 23 -40 47 -36 53 4 6 3 9 -2
6 -11 -7 -35 17 -27 26 4 3 1 6 -5 6 -6 0 -14 9 -17 20 -3 11 -13 20 -22 20
-9 0 -13 6 -9 15 3 9 0 15 -9 15 -8 0 -20 10 -26 23 -7 12 -18 26 -25 30 -8 4
-14 15 -14 22 0 8 -4 15 -10 15 -5 0 -10 7 -10 16 0 8 -4 13 -9 10 -5 -4 -15
7 -22 23 -7 16 -17 27 -21 25 -4 -3 -8 0 -8 6 0 6 -7 18 -15 27 -8 8 -12 19
-9 25 4 6 3 9 -2 6 -5 -3 -17 3 -26 14 -10 10 -15 18 -11 18 3 0 -4 8 -15 19
-12 10 -22 24 -22 31 0 7 -3 10 -7 7 -3 -4 -18 10 -32 31 -14 20 -34 45 -46
55 -11 10 -14 15 -6 11 9 -5 12 -3 7 4 -4 7 -14 12 -22 12 -8 0 -13 3 -13 8 3
19 -2 33 -11 27 -5 -3 -10 -1 -10 4 0 12 -24 43 -57 76 -13 12 -23 27 -23 34
0 6 -5 11 -11 11 -5 0 -7 5 -4 10 3 6 0 10 -7 10 -7 0 -24 18 -38 40 -13 22
-28 40 -32 40 -4 0 -8 6 -8 13 0 7 -9 18 -20 25 -11 7 -20 19 -20 28 0 8 -4
12 -10 9 -5 -3 -10 0 -10 9 0 8 -3 16 -7 18 -5 2 -28 28 -53 58 -24 30 -48 57
-52 58 -5 2 -6 8 -3 12 3 5 -5 16 -17 24 -12 9 -19 16 -15 16 4 0 -5 13 -20
28 -43 44 -62 70 -56 76 4 3 -1 6 -11 6 -9 0 -14 5 -11 10 3 6 1 10 -4 10 -6
0 -11 7 -11 15 0 8 -5 15 -10 15 -6 0 -20 16 -31 35 -12 19 -24 33 -29 30 -4
-3 -13 8 -19 23 -7 15 -30 47 -51 70 -22 23 -37 42 -34 42 4 0 -5 11 -20 25
-14 13 -26 28 -26 32 0 5 -9 15 -20 23 -11 8 -20 20 -20 26 0 7 -12 22 -26 33
-14 11 -23 24 -20 29 3 6 -4 12 -15 15 -12 3 -18 10 -14 16 3 6 2 11 -4 11 -5
0 -13 9 -16 20 -3 11 -13 20 -22 20 -9 0 -13 6 -9 15 3 9 0 15 -9 15 -8 0 -20
10 -26 23 -7 12 -18 26 -25 30 -8 4 -14 15 -14 22 0 8 -4 15 -10 15 -5 0 -10
7 -10 16 0 8 -4 13 -8 10 -5 -3 -15 7 -23 21 -8 14 -25 39 -39 54 -53 57 -77
89 -72 94 3 3 0 5 -6 5 -7 0 -12 4 -12 10 0 5 -12 22 -27 39 -16 16 -39 44
-53 62 -14 18 -31 38 -38 46 -7 7 -10 13 -7 13 4 0 -7 13 -24 29 -17 16 -31
32 -31 35 0 6 -23 36 -47 61 -7 7 -9 15 -6 19 4 3 -1 6 -11 6 -9 0 -15 4 -12
8 3 5 -4 14 -14 22 -10 8 -17 17 -14 21 2 4 -5 10 -15 14 -12 4 -18 12 -14 21
3 8 -1 14 -11 14 -9 0 -16 7 -16 15 0 8 -4 15 -10 15 -5 0 -10 5 -10 11 0 6
-15 25 -32 41 -18 17 -26 27 -18 23 8 -4 3 4 -12 17 -15 14 -25 28 -21 32 3 3
-2 6 -11 6 -12 0 -16 5 -12 15 3 9 0 15 -9 15 -7 0 -17 9 -20 20 -4 11 -11 17
-17 14 -7 -4 -8 -2 -4 4 3 6 -4 21 -17 34 -37 36 -87 105 -82 112 3 3 2 4 -2
1 -6 -5 -38 27 -63 65 -8 12 -20 28 -27 35 -7 7 -9 15 -6 19 4 3 -1 6 -10 6
-10 0 -17 7 -17 15 0 9 -7 18 -15 21 -8 4 -13 9 -11 13 3 4 -6 16 -20 26 -13
10 -32 33 -40 52 -9 18 -20 30 -25 27 -5 -3 -9 1 -9 8 0 8 -9 20 -20 28 -11 8
-20 19 -20 24 0 6 -17 28 -37 50 -21 21 -31 35 -23 31 8 -4 6 1 -5 12 -11 11
-23 18 -28 16 -4 -2 -7 -1 -6 4 3 20 -2 34 -11 28 -5 -3 -10 -1 -10 4 0 12
-23 42 -60 79 -14 14 -18 22 -10 18 8 -4 4 2 -10 13 -14 11 -22 21 -18 21 4 0
-8 16 -27 35 -19 19 -35 39 -35 45 0 5 -4 10 -10 10 -5 0 -10 7 -10 15 0 8 -6
15 -14 15 -8 0 -18 5 -22 12 -4 7 -3 8 4 4 7 -4 12 -2 12 3 0 6 -5 11 -11 11
-15 0 -39 26 -32 34 4 3 1 6 -5 6 -7 0 -12 4 -12 10 0 5 -10 20 -22 32 -13 13
-34 39 -48 58 -14 19 -37 47 -52 62 -14 16 -23 28 -20 28 4 1 -4 10 -17 20
-13 11 -19 20 -15 20 5 0 1 5 -8 11 -10 5 -18 15 -18 20 0 6 -14 24 -31 40
-17 16 -27 29 -23 29 5 0 1 5 -8 11 -10 5 -18 14 -18 20 0 5 -12 21 -26 34
-15 14 -24 25 -20 25 4 0 1 6 -6 14 -7 8 -16 12 -21 9 -4 -2 -7 -1 -6 4 3 20
-2 34 -11 28 -5 -3 -10 1 -10 9 0 9 -4 16 -8 16 -4 0 -15 12 -24 28 -9 15 -32
43 -51 63 -18 19 -36 43 -40 52 -3 9 -11 17 -17 17 -6 0 -8 5 -5 10 3 6 -1 10
-10 10 -10 0 -15 6 -12 13 5 12 -17 40 -26 31 -2 -3 -10 9 -17 26 -7 16 -16
27 -21 24 -5 -3 -9 2 -9 10 0 9 -4 16 -10 16 -5 0 -10 7 -10 15 0 9 -7 18 -16
22 -8 3 -20 17 -25 30 -5 13 -13 22 -18 19 -5 -3 -12 6 -15 19 -4 14 -11 23
-16 20 -6 -3 -10 -2 -10 2 0 10 -25 45 -58 79 -13 13 -20 24 -17 24 3 0 -3 8
-12 18 -36 38 -51 60 -46 66 4 3 -1 6 -11 6 -9 0 -15 4 -12 9 3 5 -1 11 -9 15
-8 3 -15 12 -15 21 0 8 -5 15 -10 15 -6 0 -20 16 -31 35 -12 19 -25 32 -30 29
-8 -5 -13 10 -10 29 1 5 -8 11 -19 14 -11 3 -17 9 -14 14 3 5 -13 27 -35 50
-23 22 -41 45 -41 49 0 5 -8 14 -17 19 -10 6 -14 11 -9 11 5 0 -4 12 -20 27
-16 15 -29 29 -29 32 0 3 -3 5 -8 4 -4 -2 -7 6 -7 18 0 11 -4 17 -10 14 -5 -3
-10 1 -10 9 0 8 -9 20 -20 26 -11 6 -20 17 -20 25 0 8 -4 15 -10 15 -5 0 -10
6 -10 13 0 7 -9 18 -20 25 -11 7 -20 19 -20 26 0 8 -9 18 -20 21 -11 4 -18 11
-15 16 3 5 -10 25 -30 44 -19 20 -35 38 -35 40 0 5 -25 37 -47 60 -7 8 -13 18
-13 24 0 6 -9 15 -20 21 -11 6 -20 15 -20 21 0 5 -12 21 -26 34 -15 14 -23 25
-18 25 5 0 1 5 -8 11 -10 5 -18 17 -18 26 0 10 -6 13 -16 9 -15 -6 -15 -4 -3
11 7 10 9 15 5 11 -9 -8 -31 14 -71 67 -11 14 -28 35 -37 45 -9 10 -14 21 -10
24 3 3 -2 6 -11 6 -10 0 -16 4 -15 8 2 5 -8 19 -22 33 -15 13 -17 17 -6 9 12
-9 9 -1 -10 22 -16 21 -32 38 -36 38 -3 0 -19 20 -36 45 -16 24 -32 42 -36 38
-3 -3 -6 -1 -6 6 0 7 -6 18 -12 25 -7 7 -24 28 -38 46 -14 18 -30 39 -37 45
-7 7 -9 15 -6 19 4 3 -1 6 -9 6 -9 0 -21 13 -28 30 -7 16 -16 27 -21 24 -5 -3
-9 2 -9 10 0 9 -4 16 -10 16 -5 0 -10 9 -10 20 0 11 -3 19 -7 18 -10 -4 -53
39 -53 52 0 6 -4 10 -10 10 -5 0 -10 7 -10 16 0 8 -4 12 -10 9 -5 -3 -10 1
-10 9 0 8 -12 24 -26 35 -14 11 -23 25 -19 31 3 5 -1 10 -10 10 -10 0 -13 5
-9 12 5 7 2 9 -9 5 -11 -4 -14 -2 -11 7 3 8 -7 23 -21 34 -15 12 -25 25 -22
29 6 9 -18 34 -26 27 -2 -3 -10 9 -17 26 -7 16 -19 30 -27 30 -8 0 -12 4 -9 8
3 5 -6 19 -20 31 -14 12 -22 27 -18 33 4 7 3 8 -4 4 -7 -4 -12 -1 -12 6 0 7
-9 19 -20 26 -12 7 -18 17 -15 22 3 6 0 10 -7 10 -14 0 -53 59 -49 75 1 5 0 7
-4 3 -10 -10 -56 42 -48 55 3 6 1 7 -5 3 -7 -4 -12 -1 -12 6 0 7 -14 24 -30
37 -17 13 -30 29 -30 37 0 8 -9 19 -20 26 -11 7 -20 16 -20 21 0 8 -6 16 -45
61 -13 16 -22 32 -19 37 3 5 -2 6 -11 3 -9 -4 -15 -3 -14 2 3 21 -2 34 -13 34
-7 0 -24 18 -38 40 -13 22 -28 40 -32 40 -4 0 -8 4 -8 10 0 5 -18 28 -39 52
-22 23 -37 46 -35 50 3 4 -3 8 -12 8 -10 0 -15 3 -11 6 8 8 -25 44 -35 38 -5
-3 -7 -1 -6 4 3 12 -20 49 -44 71 -10 8 -18 20 -18 26 0 6 -9 17 -19 25 -11 7
-18 17 -15 22 3 4 -2 8 -10 8 -9 0 -16 5 -16 10 0 6 -12 23 -27 37 -16 15 -21
23 -13 19 9 -5 8 -2 -2 7 -10 8 -18 17 -18 21 0 4 -12 18 -26 31 -15 14 -23
25 -19 25 4 0 -2 8 -13 19 -12 10 -19 21 -15 25 3 3 -1 6 -10 6 -9 0 -17 7
-17 15 0 8 -4 15 -10 15 -5 0 -10 6 -10 14 0 8 -9 17 -19 21 -12 4 -18 12 -14
21 3 9 -1 14 -12 14 -9 0 -13 5 -10 10 3 6 2 10 -4 10 -5 0 -13 9 -16 20 -4
11 -11 18 -16 15 -5 -4 -9 -1 -9 4 0 10 -26 44 -62 83 -10 10 -18 23 -18 28 0
6 -5 10 -12 10 -6 0 -8 3 -5 6 3 4 -5 15 -18 26 -14 11 -25 25 -25 31 0 7 -9
18 -20 25 -11 7 -20 17 -20 23 0 5 -11 21 -25 35 -14 14 -23 30 -20 35 4 5 2
9 -3 9 -11 0 -52 35 -52 44 0 4 -6 13 -12 20 -21 22 -66 81 -68 88 0 4 -15 22
-33 41 -18 19 -43 49 -57 67 -14 18 -30 38 -37 45 -7 7 -9 15 -6 19 4 3 -1 6
-10 6 -10 0 -17 8 -17 21 0 11 -4 17 -10 14 -9 -6 -14 7 -11 27 0 4 -7 4 -16
1 -11 -4 -14 -3 -9 5 4 7 2 12 -3 12 -6 0 -11 5 -11 10 0 6 -13 24 -30 40 -16
16 -30 33 -30 39 0 5 -7 12 -16 15 -8 3 -12 10 -9 16 3 5 1 10 -4 10 -6 0 -11
8 -11 17 0 9 -3 14 -6 10 -10 -10 -32 17 -26 33 3 8 2 12 -2 8 -11 -9 -57 42
-49 55 3 6 1 7 -5 3 -7 -4 -12 -1 -12 8 0 9 -7 16 -16 16 -8 0 -13 4 -9 9 3 5
-5 17 -17 25 -12 9 -19 16 -15 16 7 0 -7 18 -56 70 -15 17 -24 30 -20 30 4 0
0 5 -9 11 -10 5 -18 16 -18 22 0 7 -9 19 -20 27 -11 8 -20 20 -20 28 0 7 -4
10 -10 7 -5 -3 -10 0 -10 8 0 8 -10 22 -22 31 -13 9 -16 14 -8 11 8 -4 4 3
-10 14 -14 11 -21 21 -17 21 5 0 -6 13 -24 29 -20 18 -29 34 -24 42 5 7 4 10
-2 6 -5 -4 -16 5 -23 18 -7 13 -17 22 -21 20 -4 -3 -10 4 -14 15 -3 11 -11 20
-16 20 -5 0 -8 3 -8 8 1 4 1 14 0 22 -1 13 -2 13 -11 0 -8 -13 -10 -12 -10 3
0 10 -7 20 -15 23 -8 4 -15 12 -15 20 0 8 -4 14 -10 14 -5 0 -10 5 -10 11 0 7
-8 19 -18 28 -33 29 -72 88 -64 96 4 5 3 6 -3 3 -5 -3 -20 5 -33 18 -12 13
-20 24 -17 24 6 0 2 6 -50 64 -19 22 -35 44 -35 49 0 4 -4 5 -10 2 -5 -3 -10
2 -10 12 0 10 -9 24 -21 31 -12 7 -19 16 -16 18 5 5 -13 27 -63 80 -11 12 -20
25 -20 29 0 4 -11 18 -26 31 -14 13 -22 24 -19 24 4 0 -12 19 -34 41 -22 23
-43 50 -46 60 -4 11 -13 19 -21 19 -8 0 -12 4 -9 10 3 5 -5 21 -19 34 -14 13
-26 29 -26 35 0 7 -4 9 -10 6 -5 -3 -10 1 -10 9 0 9 -5 16 -12 16 -6 0 -9 3
-6 6 3 3 -4 15 -16 28 -36 38 -66 76 -66 84 0 4 -8 14 -17 23 -10 8 -31 32
-48 54 -16 21 -40 50 -52 64 -40 46 -43 50 -43 57 0 4 -10 16 -22 28 -13 12
-32 34 -43 50 -19 27 -36 48 -75 93 -10 12 -16 24 -13 27 4 3 -1 6 -11 6 -9 0
-15 4 -12 9 3 5 -1 11 -9 15 -8 3 -15 10 -15 17 0 6 -13 23 -30 39 -16 15 -26
30 -23 34 3 3 1 6 -5 6 -6 0 -14 9 -17 20 -4 11 -10 18 -15 15 -4 -3 -10 5
-13 16 -4 13 -10 18 -18 13 -8 -4 -10 -3 -5 4 4 6 -2 19 -14 29 -11 10 -20 23
-20 31 0 7 -4 10 -10 7 -5 -3 -10 1 -10 9 0 9 -5 16 -12 16 -6 0 -9 3 -5 6 3
3 -5 16 -19 29 -13 12 -24 26 -24 31 0 5 -9 16 -19 24 -11 7 -18 17 -15 22 3
4 -2 8 -10 8 -15 0 -21 12 -17 33 1 5 -2 6 -6 4 -5 -2 -17 5 -28 16 -11 11
-14 17 -7 13 6 -4 12 -3 12 2 0 5 -10 12 -22 15 -12 4 -19 9 -16 13 9 9 -15
33 -26 26 -5 -3 -6 0 -2 6 3 6 -10 27 -29 46 -20 20 -32 36 -28 36 4 0 0 5 -9
11 -10 5 -18 15 -18 20 0 6 -16 27 -35 46 -19 19 -35 38 -35 42 0 3 -14 21
-30 40 -16 18 -27 38 -23 44 3 5 2 7 -4 4 -6 -4 -25 14 -42 38 -18 25 -36 45
-40 45 -4 0 -14 12 -22 28 -8 15 -21 34 -29 42 -8 8 -34 41 -58 73 -23 31 -47
57 -52 57 -6 0 -9 3 -9 8 3 19 -2 33 -11 27 -5 -3 -15 5 -21 19 -7 14 -16 23
-22 19 -6 -3 -7 -1 -3 6 8 12 -16 41 -34 41 -6 0 -9 4 -5 9 3 6 -11 26 -30 45
-20 20 -33 36 -30 36 6 0 2 6 -55 70 -22 25 -43 53 -46 63 -3 9 -10 15 -15 12
-5 -4 -9 -1 -9 4 0 11 -20 38 -52 73 -10 10 -15 18 -12 18 3 0 -8 13 -25 29
-17 16 -31 33 -31 39 0 5 -18 28 -40 51 -22 22 -37 41 -34 41 4 0 -5 11 -20
25 -14 13 -26 29 -26 35 0 5 -4 10 -9 10 -5 0 -13 9 -16 20 -3 11 -13 20 -21
20 -8 0 -13 3 -13 8 3 19 -2 33 -11 27 -5 -3 -10 1 -10 9 0 8 -8 20 -17 25
-10 6 -14 11 -9 11 5 0 -2 11 -15 25 -42 43 -59 65 -59 74 0 5 -10 13 -21 16
-16 5 -18 9 -9 15 9 6 7 10 -9 15 -12 3 -19 10 -16 15 3 4 -2 11 -11 14 -8 3
-13 10 -10 15 3 5 -1 11 -9 15 -8 3 -15 12 -15 21 0 8 -3 14 -7 12 -5 -1 -10
3 -13 8 -2 6 -16 22 -30 38 -59 65 -70 78 -70 87 0 6 -4 10 -10 10 -5 0 -10 6
-10 13 0 7 -9 19 -20 27 -11 8 -20 18 -20 23 0 5 -13 21 -30 37 -16 15 -26 30
-23 34 3 3 0 6 -7 6 -7 0 -10 3 -7 6 3 4 -5 15 -18 26 -14 11 -25 26 -25 34 0
8 -7 14 -15 14 -8 0 -15 7 -15 15 0 8 -4 15 -10 15 -5 0 -10 6 -10 13 0 7 -9
19 -19 27 -11 7 -18 17 -15 22 3 4 -2 8 -10 8 -9 0 -16 6 -16 14 0 7 -10 21
-22 30 -13 9 -16 14 -8 11 8 -4 4 3 -10 14 -14 11 -21 21 -16 21 4 0 -2 9 -15
20 -13 10 -21 19 -17 20 4 0 -6 13 -22 29 -17 15 -30 32 -30 36 0 4 -11 18
-26 31 -14 13 -22 24 -18 24 3 0 -8 14 -26 30 -18 17 -29 30 -26 30 8 0 3 5
-54 70 -22 25 -43 53 -46 63 -3 9 -10 15 -15 12 -5 -4 -9 1 -9 9 0 9 -4 16 -8
16 -5 0 -14 12 -20 26 -7 14 -17 22 -22 19 -6 -3 -10 2 -10 12 0 10 -9 25 -20
33 -11 8 -20 20 -20 27 0 6 -9 15 -20 18 -11 3 -20 11 -20 16 0 6 6 7 13 4 6
-4 0 3 -15 15 -16 12 -28 28 -28 36 0 8 -7 14 -15 14 -8 0 -15 7 -15 15 0 8
-4 15 -10 15 -5 0 -10 5 -10 10 0 6 -13 24 -30 42 -16 17 -30 38 -30 47 0 14
-2 14 -10 1 -8 -13 -10 -12 -10 3 0 10 -10 28 -22 41 -32 33 -58 65 -58 72 0
3 -13 18 -30 34 -16 15 -26 30 -23 34 3 3 0 6 -7 6 -7 0 -11 3 -8 6 4 3 -6 18
-21 32 -16 15 -33 37 -40 50 -7 12 -16 20 -22 17 -5 -4 -9 2 -9 12 0 10 -9 25
-20 33 -11 8 -20 19 -20 25 0 6 -8 17 -17 26 -26 22 -73 81 -73 91 0 4 -8 8
-17 8 -14 0 -15 2 -4 9 11 7 9 10 -8 16 -11 3 -21 13 -21 21 0 8 -5 14 -12 14
-6 0 -9 3 -5 6 3 3 -5 16 -19 29 -13 12 -24 27 -24 33 0 5 -7 12 -15 16 -8 3
-15 12 -15 21 0 8 -7 15 -15 15 -8 0 -15 7 -15 15 0 8 -4 15 -10 15 -5 0 -10
5 -10 11 0 7 -10 20 -22 30 -11 11 -17 19 -12 19 5 0 -4 9 -21 20 -18 12 -24
20 -15 21 9 0 7 4 -7 11 -13 6 -23 16 -23 22 0 6 -16 28 -35 49 -18 20 -31 37
-28 37 3 0 -4 8 -15 19 -12 10 -19 21 -15 25 3 3 -1 6 -10 6 -15 0 -22 11 -18
33 0 4 -6 7 -16 7 -9 0 -13 3 -10 6 3 4 -7 19 -23 34 -16 15 -27 29 -25 32 3
3 -13 23 -36 46 -22 23 -38 42 -35 42 3 0 -9 15 -27 34 -18 18 -35 32 -39 30
-3 -2 -8 0 -10 5 -1 5 -10 11 -18 13 -8 2 -17 6 -20 10 -3 3 -24 8 -48 11 -33
3 -42 1 -43 -12z"/>
<path d="M39545 38899 c6 -8 -8 -13 -28 -10 -4 1 -13 -3 -20 -9 -7 -5 -27 -21
-44 -36 -18 -14 -33 -32 -33 -40 0 -9 -4 -12 -10 -9 -5 3 -12 -6 -16 -20 -3
-14 -9 -24 -11 -21 -8 8 -33 -21 -33 -39 0 -9 -4 -14 -8 -11 -5 3 -16 -8 -26
-25 -9 -16 -22 -29 -27 -29 -6 0 -7 -4 -4 -10 3 -5 -1 -10 -9 -10 -9 0 -15 -4
-13 -9 1 -5 -10 -23 -26 -40 -15 -17 -25 -31 -22 -31 2 0 -11 -16 -30 -36 -19
-20 -33 -40 -29 -45 3 -5 0 -9 -6 -9 -13 0 -46 -30 -33 -30 4 0 0 -5 -9 -11
-10 -5 -18 -14 -18 -19 0 -5 -16 -25 -35 -44 -20 -20 -35 -38 -35 -41 1 -22
-1 -25 -10 -20 -5 3 -10 1 -10 -6 0 -10 -10 -23 -62 -80 -10 -10 -18 -21 -18
-23 0 -3 -15 -22 -34 -42 -19 -21 -33 -42 -30 -46 3 -4 -2 -8 -10 -8 -9 0 -15
-3 -14 -7 3 -8 -19 -37 -54 -75 -10 -10 -16 -18 -13 -18 3 0 -4 -11 -17 -24
-40 -41 -57 -64 -51 -70 4 -3 -1 -6 -10 -6 -9 0 -17 -7 -17 -15 0 -8 -4 -15
-10 -15 -5 0 -10 -7 -10 -16 0 -8 -4 -12 -10 -9 -5 3 -12 -6 -16 -20 -3 -14
-11 -22 -17 -18 -7 4 -8 0 -3 -13 4 -10 4 -16 1 -12 -7 6 -45 -26 -45 -38 0
-4 -11 -17 -26 -30 -14 -13 -22 -24 -18 -24 3 0 -8 -14 -25 -32 -17 -17 -31
-38 -31 -45 0 -8 -4 -11 -10 -8 -5 3 -12 -6 -16 -20 -3 -13 -9 -23 -13 -22 -6
4 -41 -29 -41 -38 0 -3 0 -10 0 -16 0 -5 -4 -7 -10 -4 -5 3 -10 1 -10 -6 0
-10 -10 -23 -62 -80 -10 -10 -18 -21 -18 -24 0 -3 -11 -16 -25 -29 -14 -13
-25 -31 -25 -40 0 -10 -4 -14 -10 -11 -5 3 -10 2 -10 -3 0 -5 -8 -18 -17 -30
-48 -55 -57 -67 -58 -72 0 -3 -15 -20 -32 -38 -18 -19 -33 -38 -33 -43 0 -6
-5 -7 -12 -3 -6 4 -8 3 -5 -3 4 -6 -5 -25 -21 -41 -50 -56 -71 -82 -65 -82 3
0 -9 -13 -27 -30 -18 -16 -29 -30 -24 -30 4 0 -1 -7 -12 -15 -10 -8 -15 -15
-10 -15 5 0 -4 -11 -20 -25 -16 -14 -26 -25 -21 -25 4 0 -1 -8 -10 -18 -10
-11 -22 -17 -27 -14 -5 3 -6 1 -3 -5 3 -5 -4 -20 -17 -34 -12 -13 -36 -42 -52
-65 -35 -48 -53 -70 -76 -91 -9 -9 -15 -20 -12 -25 5 -7 -10 -12 -29 -9 -5 1
-5 -4 -1 -10 4 -7 -3 -20 -17 -31 -13 -11 -17 -16 -9 -12 8 4 4 -4 -10 -19
-52 -55 -60 -64 -60 -75 0 -7 -7 -12 -16 -12 -8 0 -12 -4 -9 -10 3 -5 1 -10
-6 -10 -7 0 -10 -3 -6 -6 9 -9 -25 -44 -36 -37 -6 3 -7 1 -3 -5 4 -7 2 -12 -3
-12 -6 0 -11 -7 -11 -15 0 -8 -5 -15 -11 -15 -5 0 -8 -3 -6 -7 5 -10 -30 -43
-37 -35 -3 3 -6 -2 -6 -11 0 -9 -8 -21 -17 -26 -10 -6 -15 -11 -11 -11 8 0
-19 -35 -59 -77 -13 -13 -23 -28 -23 -33 0 -6 -4 -10 -10 -10 -5 0 -10 -5 -10
-11 0 -6 -13 -23 -28 -37 -16 -15 -27 -34 -24 -42 3 -8 1 -12 -3 -8 -9 8 -35
-14 -28 -24 2 -5 -4 -8 -13 -8 -10 0 -14 -3 -11 -6 4 -4 -6 -21 -21 -39 -15
-18 -38 -47 -52 -65 -14 -18 -32 -39 -40 -48 -8 -8 -15 -18 -15 -21 -1 -3 -15
-21 -33 -40 -17 -18 -29 -38 -25 -44 3 -6 1 -7 -6 -3 -6 4 -14 0 -18 -11 -4
-10 -19 -30 -35 -44 -15 -15 -24 -29 -21 -33 3 -3 1 -6 -5 -6 -6 0 -14 -9 -17
-20 -4 -11 -11 -18 -16 -15 -5 4 -9 -1 -9 -9 0 -8 -8 -20 -17 -25 -10 -6 -14
-11 -9 -11 5 0 -1 -9 -14 -20 -13 -11 -20 -20 -15 -20 4 0 -4 -9 -19 -21 -14
-11 -24 -24 -21 -29 3 -4 -2 -10 -10 -14 -8 -3 -15 -13 -15 -21 0 -9 -4 -13
-10 -10 -5 3 -10 2 -10 -3 0 -4 -8 -17 -18 -28 -10 -10 -21 -27 -25 -37 -4
-10 -11 -16 -16 -12 -5 3 -12 -3 -16 -14 -3 -10 -13 -28 -23 -39 -40 -47 -48
-57 -50 -64 -1 -4 -20 -26 -42 -49 -22 -23 -38 -44 -36 -46 2 -2 -11 -19 -28
-37 -39 -43 -76 -87 -76 -91 0 -2 -13 -19 -30 -37 -16 -18 -30 -38 -30 -46 0
-7 -4 -10 -10 -7 -5 3 -10 0 -10 -8 0 -8 -7 -18 -16 -21 -8 -3 -13 -10 -10
-15 3 -5 -1 -12 -10 -15 -8 -3 -12 -11 -8 -17 5 -8 3 -9 -5 -5 -8 5 -14 0 -18
-13 -3 -12 -12 -21 -20 -21 -8 0 -12 -4 -8 -9 3 -6 -3 -14 -12 -20 -10 -6 -15
-11 -11 -11 4 0 0 -9 -9 -19 -9 -11 -21 -17 -26 -14 -6 3 -7 1 -3 -5 6 -10 -9
-30 -66 -93 -10 -10 -16 -19 -13 -19 5 0 -29 -41 -77 -92 -15 -16 -27 -31 -27
-34 1 -3 -11 -19 -25 -37 -14 -17 -26 -35 -26 -40 0 -4 -4 -5 -10 -2 -5 3 -10
-1 -10 -10 0 -8 -7 -18 -15 -21 -8 -4 -12 -10 -9 -15 3 -5 1 -9 -4 -9 -5 0
-15 -11 -22 -25 -7 -13 -16 -22 -21 -20 -4 3 -13 -8 -21 -25 -7 -16 -19 -30
-25 -30 -7 0 -13 -9 -13 -21 0 -11 -4 -17 -10 -14 -10 6 -15 -9 -10 -30 1 -5
-1 -7 -5 -3 -9 8 -45 -23 -45 -39 0 -6 -8 -17 -17 -22 -10 -6 -14 -11 -9 -11
5 0 -3 -11 -18 -25 -15 -14 -24 -25 -21 -25 3 0 0 -6 -7 -14 -7 -8 -17 -11
-22 -8 -5 3 -6 0 -2 -6 3 -6 -2 -15 -11 -21 -10 -6 -14 -11 -9 -11 6 0 1 -9
-10 -20 -29 -29 -45 -50 -39 -50 3 0 -3 -8 -12 -18 -10 -11 -20 -18 -23 -16
-3 1 -12 -11 -19 -27 -7 -16 -17 -27 -22 -23 -5 3 -9 -2 -9 -12 0 -9 -16 -31
-36 -49 -20 -19 -33 -38 -29 -44 3 -6 -1 -11 -9 -11 -9 0 -16 -4 -16 -10 0 -5
-11 -22 -24 -37 -14 -16 -36 -41 -50 -57 -14 -16 -23 -34 -19 -40 3 -6 3 -8
-1 -4 -9 8 -36 -14 -30 -24 3 -4 -5 -12 -17 -18 -11 -7 -18 -14 -15 -17 3 -3
-12 -21 -32 -41 -20 -19 -30 -32 -22 -27 8 4 1 -6 -17 -23 -17 -16 -29 -32
-26 -36 3 -3 -2 -8 -11 -12 -9 -3 -13 -10 -10 -15 3 -5 0 -9 -5 -9 -6 0 -11
-7 -11 -15 0 -9 -6 -12 -15 -9 -9 4 -15 0 -15 -10 0 -9 -14 -29 -31 -46 -18
-16 -28 -30 -24 -30 5 0 0 -7 -11 -16 -10 -8 -13 -12 -5 -8 9 5 12 3 7 -4 -4
-7 -14 -12 -22 -12 -8 0 -14 -7 -14 -15 0 -7 -8 -19 -17 -24 -10 -6 -14 -11
-9 -11 5 0 -2 -10 -15 -23 -13 -12 -33 -35 -44 -51 -11 -15 -30 -40 -43 -54
-32 -38 -38 -46 -40 -55 -1 -4 -12 -18 -24 -31 -13 -13 -36 -40 -53 -61 -16
-20 -37 -45 -47 -55 -9 -10 -14 -21 -11 -24 4 -3 -1 -6 -11 -6 -9 0 -15 -4
-11 -9 3 -6 -3 -14 -12 -20 -10 -6 -14 -11 -9 -11 5 0 -3 -11 -18 -25 -15 -14
-25 -25 -22 -25 3 0 -10 -15 -29 -34 -18 -19 -31 -36 -28 -39 3 -3 -8 -19 -23
-34 -48 -48 -73 -81 -67 -87 4 -3 -1 -6 -11 -6 -9 0 -15 -4 -11 -9 3 -6 -4
-15 -15 -21 -11 -6 -18 -15 -15 -21 4 -5 -1 -12 -9 -15 -9 -3 -14 -10 -11 -14
3 -5 -4 -11 -15 -15 -11 -3 -20 -13 -20 -21 0 -8 -7 -17 -15 -20 -8 -4 -12
-10 -9 -15 3 -5 1 -9 -4 -9 -5 0 -15 -11 -22 -25 -7 -13 -17 -22 -22 -19 -4 3
-8 -2 -8 -10 0 -9 -4 -16 -8 -16 -4 0 -16 -14 -26 -30 -9 -17 -22 -27 -28 -24
-7 4 -8 2 -4 -4 4 -7 -3 -23 -16 -36 -35 -38 -49 -56 -43 -56 2 0 -9 -13 -25
-29 -17 -15 -30 -31 -30 -35 0 -13 -27 -35 -35 -28 -4 4 -6 3 -4 -3 4 -17 -12
-45 -22 -39 -5 3 -9 2 -8 -3 3 -20 -2 -34 -11 -28 -9 6 -14 -8 -11 -27 0 -5
-6 -8 -14 -8 -8 0 -15 -7 -15 -16 0 -8 -4 -13 -8 -10 -5 3 -16 -11 -25 -30
-10 -19 -22 -32 -27 -29 -6 4 -9 3 -8 -2 4 -13 -38 -63 -47 -55 -3 4 -6 3 -5
-3 5 -21 0 -36 -10 -30 -5 3 -10 -1 -10 -9 0 -8 -8 -20 -17 -25 -10 -6 -14
-11 -9 -11 5 0 -3 -11 -18 -25 -15 -14 -24 -25 -20 -25 4 0 -1 -8 -12 -18 -10
-10 -28 -30 -38 -45 -11 -14 -24 -23 -29 -20 -6 3 -7 1 -4 -4 4 -6 -3 -22 -16
-36 -40 -45 -62 -73 -67 -83 -11 -22 -34 -42 -43 -37 -5 3 -8 0 -5 -8 3 -8 -1
-20 -9 -27 -7 -8 -10 -19 -6 -25 3 -7 3 -9 -2 -5 -8 7 -15 0 -73 -70 -15 -19
-37 -45 -49 -59 -13 -14 -20 -30 -16 -36 3 -6 1 -7 -5 -3 -7 4 -12 3 -12 -3 0
-6 -13 -24 -30 -41 -16 -16 -28 -30 -26 -30 2 0 -11 -17 -30 -37 -19 -20 -32
-38 -30 -41 3 -2 -7 -16 -22 -31 -38 -38 -73 -81 -66 -81 3 0 -6 -11 -20 -23
-14 -13 -23 -27 -19 -30 3 -4 -1 -7 -11 -7 -9 0 -14 -5 -11 -10 3 -6 -1 -13
-9 -16 -9 -3 -16 -12 -16 -19 0 -7 -7 -16 -16 -19 -8 -3 -12 -10 -9 -16 3 -5
-1 -10 -10 -10 -9 0 -13 -4 -10 -10 3 -5 1 -10 -6 -10 -7 0 -10 -2 -7 -5 3 -3
-12 -24 -34 -45 -21 -22 -36 -40 -32 -40 4 0 -3 -8 -14 -19 -12 -10 -19 -21
-15 -25 3 -3 -1 -6 -11 -6 -9 0 -14 -5 -11 -10 3 -6 -1 -13 -10 -16 -9 -4 -14
-13 -11 -20 3 -8 1 -14 -4 -14 -6 0 -19 -9 -30 -20 -11 -11 -17 -20 -14 -20 4
0 -5 -11 -19 -24 -14 -13 -23 -26 -20 -29 3 -3 -4 -12 -16 -19 -12 -7 -21 -17
-21 -22 0 -5 -11 -19 -26 -32 -14 -13 -22 -24 -19 -24 4 0 0 -6 -7 -14 -7 -7
-24 -28 -38 -45 -14 -17 -37 -46 -52 -64 -15 -17 -28 -36 -28 -40 0 -5 -5 -5
-12 -1 -6 4 -8 3 -5 -3 4 -6 -9 -27 -27 -47 -19 -20 -32 -36 -29 -36 3 0 -6
-11 -20 -24 -14 -13 -23 -27 -20 -30 4 -3 1 -6 -6 -6 -7 0 -9 -4 -6 -10 3 -5
0 -10 -7 -10 -7 0 -24 -17 -38 -38 -14 -20 -28 -39 -31 -42 -3 -3 -20 -25 -37
-49 -18 -24 -32 -40 -32 -35 -1 5 -8 -3 -16 -18 -8 -16 -19 -28 -25 -28 -6 0
-8 -4 -5 -8 3 -5 -4 -14 -14 -22 -10 -8 -17 -17 -14 -22 3 -4 1 -8 -5 -8 -5 0
-13 -10 -16 -21 -6 -17 -9 -19 -16 -8 -7 12 -9 11 -9 -1 0 -17 -20 -46 -58
-86 -13 -13 -20 -24 -16 -24 4 0 -6 -11 -22 -25 -16 -14 -25 -25 -20 -25 5 0
-1 -8 -12 -19 -12 -10 -22 -24 -22 -30 0 -7 -4 -9 -10 -6 -5 3 -10 -1 -10 -9
0 -9 -4 -16 -10 -16 -5 0 -10 -4 -10 -10 0 -5 -8 -18 -17 -29 -55 -58 -76 -84
-63 -76 8 4 -1 -7 -20 -26 -19 -19 -42 -46 -50 -58 -8 -13 -25 -34 -38 -47
-13 -13 -19 -24 -15 -24 4 0 0 -5 -10 -11 -9 -6 -15 -15 -11 -20 3 -5 2 -8 -3
-7 -4 2 -9 -1 -10 -5 -1 -5 -11 -17 -22 -26 -12 -10 -21 -24 -21 -30 0 -7 -4
-10 -9 -7 -5 3 -12 -6 -15 -19 -4 -14 -11 -23 -16 -20 -6 3 -10 1 -10 -5 0 -5
-13 -24 -30 -42 -16 -17 -30 -36 -30 -43 0 -7 -11 -21 -25 -31 -14 -10 -25
-25 -25 -32 0 -7 -4 -10 -10 -7 -5 3 -10 -1 -10 -10 0 -8 -7 -18 -15 -21 -8
-4 -12 -10 -9 -15 3 -5 1 -9 -4 -9 -5 0 -22 -18 -37 -40 -15 -22 -32 -37 -38
-33 -5 3 -7 1 -4 -4 4 -6 -4 -22 -18 -34 -13 -13 -25 -27 -25 -31 0 -10 -27
-44 -67 -84 -17 -18 -29 -35 -26 -38 3 -3 -2 -8 -11 -12 -9 -3 -13 -10 -10
-15 3 -5 0 -9 -5 -9 -6 0 -11 -7 -11 -16 0 -8 -5 -12 -10 -9 -6 3 -13 -2 -17
-12 -4 -10 -15 -26 -26 -35 -11 -10 -17 -18 -13 -18 4 0 -3 -11 -16 -25 -13
-13 -32 -36 -43 -51 -11 -14 -28 -35 -37 -45 -10 -11 -18 -23 -18 -29 0 -5 -9
-14 -20 -20 -11 -6 -20 -15 -20 -21 0 -6 -13 -24 -30 -40 -16 -17 -37 -43 -47
-59 -9 -17 -21 -30 -25 -30 -4 0 -8 -7 -8 -16 0 -8 -4 -12 -10 -9 -5 3 -10 2
-10 -2 0 -10 -25 -44 -52 -74 -10 -11 -15 -19 -10 -19 4 -1 -4 -7 -18 -15 -14
-8 -21 -14 -16 -15 6 0 1 -7 -10 -16 -10 -8 -12 -12 -4 -8 8 4 -6 -14 -32 -40
-26 -26 -47 -49 -47 -52 1 -3 -8 -17 -20 -30 -11 -13 -19 -24 -16 -24 2 0 -9
-15 -25 -32 -53 -59 -60 -68 -60 -79 0 -5 -4 -7 -10 -4 -5 3 -10 -1 -10 -9 0
-8 -8 -20 -17 -25 -10 -6 -15 -11 -10 -11 4 0 -3 -10 -15 -22 -13 -13 -25 -22
-28 -21 -3 1 -6 -7 -7 -17 -1 -10 -14 -31 -30 -47 -46 -49 -73 -83 -73 -92 0
-5 -7 -12 -16 -15 -8 -3 -12 -10 -9 -16 3 -5 0 -10 -7 -10 -7 0 -26 -20 -41
-45 -16 -25 -34 -42 -39 -38 -7 3 -8 1 -4 -5 4 -7 2 -12 -3 -12 -6 0 -11 -7
-11 -15 0 -8 -5 -15 -10 -15 -6 0 -15 -11 -22 -25 -6 -13 -15 -22 -19 -19 -5
3 -9 -2 -9 -10 0 -9 -5 -16 -12 -16 -6 0 -9 -3 -6 -6 3 -3 -4 -16 -16 -29 -37
-40 -45 -53 -39 -59 4 -3 -1 -6 -10 -6 -9 0 -17 -5 -17 -11 0 -15 -51 -75 -62
-72 -4 2 -7 0 -6 -5 4 -11 -59 -92 -66 -85 -3 3 -6 0 -6 -9 0 -8 -9 -23 -20
-33 -11 -10 -18 -20 -16 -22 2 -2 -14 -21 -35 -43 -21 -21 -40 -44 -41 -51 -2
-7 -12 -22 -23 -33 -11 -12 -43 -49 -70 -83 -28 -35 -54 -63 -58 -63 -5 0 -6
-4 -2 -9 3 -5 -5 -17 -17 -25 -12 -9 -19 -16 -15 -16 5 0 -7 -14 -25 -31 -18
-18 -26 -28 -18 -24 8 4 6 -1 -5 -12 -11 -12 -31 -35 -45 -53 -14 -18 -33 -41
-42 -51 -10 -11 -16 -19 -12 -19 3 0 -6 -11 -20 -24 -15 -13 -26 -29 -26 -35
0 -7 -5 -9 -12 -5 -8 5 -9 2 -5 -10 4 -9 3 -15 -1 -13 -4 3 -13 -1 -20 -9 -7
-8 -10 -14 -6 -14 4 0 -7 -13 -24 -28 -18 -16 -32 -34 -32 -41 0 -7 -5 -9 -12
-5 -6 4 -8 3 -4 -4 3 -6 -10 -28 -29 -49 -19 -21 -35 -45 -35 -53 0 -12 -2
-12 -9 -2 -6 10 -10 7 -15 -12 -3 -14 -11 -25 -17 -23 -6 1 -13 -6 -14 -16 -2
-10 -13 -26 -24 -36 -12 -10 -21 -22 -21 -27 0 -5 -9 -16 -20 -24 -11 -8 -20
-20 -20 -28 0 -7 -4 -10 -10 -7 -5 3 -10 -1 -10 -9 0 -9 -5 -16 -11 -16 -5 0
-8 -4 -4 -9 3 -5 -4 -12 -15 -16 -11 -4 -18 -11 -15 -16 4 -5 1 -9 -6 -9 -7 0
-10 -3 -7 -6 3 -3 -4 -16 -16 -28 -47 -51 -76 -87 -76 -93 0 -6 -14 -23 -59
-69 -13 -13 -20 -24 -16 -24 4 0 -4 -11 -19 -25 -14 -13 -26 -29 -26 -34 0 -6
-9 -15 -19 -21 -11 -5 -23 -19 -26 -30 -4 -11 -11 -17 -17 -14 -6 4 -8 3 -5
-3 4 -6 -6 -24 -21 -41 -45 -51 -62 -72 -62 -76 0 -3 -13 -19 -30 -37 -16 -18
-27 -36 -24 -41 3 -5 0 -7 -8 -6 -7 2 -12 -3 -11 -9 2 -7 -4 -13 -12 -13 -8 0
-14 -3 -12 -8 2 -8 -16 -32 -45 -59 -9 -9 -15 -20 -12 -25 3 -4 -2 -8 -11 -8
-9 0 -13 -5 -10 -10 3 -6 -1 -13 -9 -16 -9 -3 -16 -13 -16 -21 0 -8 -4 -11
-10 -8 -5 3 -10 -1 -10 -9 0 -8 -8 -20 -17 -25 -10 -6 -14 -11 -9 -11 5 0 -1
-9 -14 -20 -13 -11 -20 -20 -17 -20 3 0 -4 -10 -16 -23 -40 -43 -62 -72 -59
-81 2 -5 -4 -6 -13 -2 -9 3 -14 2 -11 -3 6 -9 -27 -57 -54 -78 -8 -7 -12 -13
-8 -13 4 0 -5 -13 -20 -29 -47 -51 -72 -82 -72 -92 0 -5 -5 -9 -11 -9 -5 0 -8
-4 -4 -9 3 -5 -4 -12 -15 -16 -11 -4 -18 -10 -15 -15 3 -5 -3 -15 -15 -22 -11
-7 -20 -18 -20 -24 0 -7 -7 -15 -16 -18 -8 -3 -12 -10 -9 -16 3 -5 -1 -10 -10
-10 -9 0 -13 -4 -10 -10 3 -5 1 -10 -5 -10 -6 0 -8 -4 -5 -10 3 -5 0 -10 -7
-10 -7 0 -19 -14 -26 -30 -8 -17 -17 -28 -21 -25 -5 2 -13 -7 -19 -20 -7 -14
-16 -25 -22 -25 -5 0 -10 -5 -10 -11 0 -5 -13 -24 -30 -42 -16 -18 -30 -35
-30 -39 0 -4 -20 -27 -44 -52 -24 -25 -41 -47 -39 -50 2 -2 -10 -18 -27 -36
-17 -17 -27 -36 -24 -42 4 -6 3 -8 -3 -5 -6 4 -14 0 -17 -9 -3 -8 -11 -12 -17
-8 -7 4 -9 3 -6 -3 4 -6 -9 -28 -28 -49 -19 -22 -35 -45 -35 -53 0 -8 -3 -12
-6 -8 -4 3 -27 -22 -53 -56 -25 -34 -54 -71 -63 -81 -10 -10 -15 -24 -11 -29
3 -6 2 -7 -4 -4 -5 3 -27 -17 -49 -46 -21 -29 -48 -62 -61 -73 -12 -12 -19
-25 -16 -28 4 -3 1 -6 -6 -6 -7 0 -10 -4 -6 -9 3 -5 -4 -13 -16 -16 -11 -4
-18 -9 -15 -12 3 -3 0 -11 -7 -18 -7 -6 -23 -27 -37 -45 -14 -19 -36 -45 -50
-60 -14 -14 -27 -30 -28 -35 -7 -20 -21 -40 -22 -30 0 6 -9 -5 -20 -22 -11
-18 -25 -33 -30 -33 -6 0 -9 -4 -5 -9 3 -5 -5 -17 -17 -25 -12 -9 -18 -16 -13
-16 6 0 2 -5 -7 -11 -10 -5 -18 -15 -18 -21 0 -5 -11 -19 -24 -29 -14 -11 -28
-28 -31 -39 -4 -11 -13 -20 -21 -20 -8 0 -13 -4 -9 -9 3 -6 -8 -24 -25 -41
-16 -17 -30 -35 -30 -40 0 -5 -8 -14 -17 -19 -10 -6 -15 -11 -11 -11 4 0 -3
-11 -15 -24 -12 -13 -35 -40 -52 -61 -16 -20 -36 -43 -42 -50 -7 -8 -13 -17
-13 -22 0 -4 -9 -14 -20 -21 -11 -7 -20 -17 -20 -23 0 -7 -11 -22 -26 -35 -14
-13 -23 -24 -20 -24 4 0 -2 -8 -11 -18 -10 -10 -28 -31 -40 -48 -12 -16 -30
-40 -40 -53 -10 -13 -30 -37 -45 -54 -16 -16 -28 -34 -28 -39 0 -5 -4 -7 -9
-4 -5 3 -12 -6 -15 -20 -4 -15 -10 -24 -13 -21 -8 8 -83 -105 -77 -115 3 -4 0
-8 -7 -8 -7 0 -9 -3 -6 -7 4 -3 2 -13 -5 -20 -8 -10 -8 -17 -1 -21 6 -4 9 -19
7 -34 -1 -16 2 -28 8 -28 5 0 8 -7 4 -15 -3 -8 -1 -15 5 -15 6 0 8 -4 5 -9 -3
-5 10 -25 29 -45 19 -21 35 -35 35 -32 0 3 15 -3 34 -13 26 -15 37 -17 46 -8
10 9 11 9 5 -1 -5 -10 -2 -13 11 -11 11 2 25 0 33 -5 10 -7 12 -6 6 4 -6 10
-2 11 19 6 21 -5 26 -4 20 6 -4 7 2 5 13 -5 16 -14 23 -15 29 -6 5 8 3 10 -6
4 -9 -5 -11 -4 -6 3 4 8 14 9 24 4 9 -5 24 -8 32 -7 8 1 21 -4 29 -9 12 -9 13
-8 6 3 -6 11 -2 13 19 7 21 -5 26 -4 21 6 -4 7 1 4 9 -6 9 -11 16 -15 16 -8 0
13 119 14 137 0 7 -6 14 -4 19 3 5 8 3 9 -6 4 -9 -5 -11 -4 -6 4 4 6 12 8 18
5 18 -11 98 -13 98 -2 0 5 5 6 10 3 6 -4 8 -11 4 -16 -3 -6 3 -5 14 2 17 11
24 10 38 -2 15 -11 16 -11 9 0 -6 11 -2 13 19 7 18 -4 25 -3 21 3 -3 7 0 8 9
5 9 -3 13 -10 10 -16 -3 -5 3 -4 14 3 17 11 24 10 38 -2 15 -11 16 -11 9 0 -6
11 -2 13 19 7 21 -5 26 -4 20 6 -4 7 3 4 16 -7 13 -11 20 -14 16 -7 -6 10 2
12 36 11 23 -1 48 -6 55 -11 7 -6 14 -4 19 3 5 8 3 9 -6 4 -9 -5 -11 -4 -6 3
5 8 13 9 24 3 9 -5 28 -7 42 -6 14 1 31 -3 39 -9 12 -9 13 -8 6 3 -6 11 -2 13
19 7 21 -5 26 -4 20 6 -4 7 2 5 13 -5 16 -14 23 -15 29 -6 5 8 3 10 -6 4 -9
-5 -11 -4 -6 3 4 8 14 9 24 4 9 -5 24 -8 32 -7 8 1 21 -4 29 -9 12 -9 13 -8 6
3 -6 11 -2 13 19 7 21 -5 26 -4 21 6 -4 7 1 4 9 -6 9 -11 16 -15 16 -8 0 13
119 14 137 0 7 -6 14 -4 19 3 5 8 3 9 -6 4 -9 -5 -11 -4 -6 4 4 6 12 8 18 5
18 -11 98 -13 98 -2 0 5 5 6 10 3 6 -4 8 -11 4 -16 -3 -6 3 -5 14 2 17 11 24
10 38 -2 15 -11 16 -11 9 0 -6 11 -2 13 19 7 18 -4 25 -3 21 3 -3 7 0 8 9 5 9
-3 13 -10 10 -16 -3 -5 3 -4 14 3 17 11 24 10 38 -2 15 -11 16 -11 9 0 -6 11
-2 13 19 7 21 -5 26 -4 20 6 -4 7 3 4 16 -7 13 -11 20 -14 16 -7 -6 10 2 12
36 11 23 -1 48 -6 55 -11 7 -6 14 -4 19 3 5 8 3 9 -6 4 -9 -5 -11 -4 -6 3 5 8
13 9 24 3 9 -5 28 -7 42 -6 14 1 31 -3 39 -9 12 -9 13 -8 6 3 -6 11 -2 13 19
7 21 -5 26 -4 20 6 -4 7 2 5 13 -5 16 -14 23 -15 29 -6 5 8 3 10 -6 4 -9 -5
-11 -4 -6 3 4 8 14 9 24 4 9 -5 24 -8 32 -7 8 1 21 -4 29 -9 12 -9 13 -8 6 3
-6 11 -2 13 19 7 21 -5 26 -4 21 6 -4 7 1 4 9 -6 9 -11 16 -15 16 -8 0 13 119
14 137 0 7 -6 14 -4 19 3 5 8 3 9 -6 4 -9 -5 -11 -4 -6 4 4 6 12 8 18 5 18
-11 98 -13 98 -2 0 5 5 6 10 3 6 -4 8 -11 4 -16 -3 -6 3 -5 14 2 17 11 24 10
38 -2 15 -11 16 -11 9 0 -6 11 -2 13 19 7 18 -4 25 -3 21 3 -3 7 0 8 9 5 9 -3
13 -10 10 -16 -3 -5 3 -4 14 3 17 11 24 10 38 -2 15 -11 16 -11 9 0 -6 11 -2
13 19 7 21 -5 26 -4 20 6 -4 7 3 4 16 -7 13 -11 20 -14 16 -7 -6 10 2 12 36
11 23 -1 48 -6 55 -11 7 -6 14 -4 19 3 5 8 3 9 -6 4 -9 -5 -11 -4 -6 3 5 8 13
9 24 3 9 -5 28 -7 42 -6 14 1 31 -3 39 -9 12 -9 13 -8 6 3 -6 11 -2 13 19 7
21 -5 26 -4 20 6 -4 7 2 5 13 -5 16 -14 23 -15 29 -6 5 8 3 10 -6 4 -9 -5 -11
-4 -6 3 4 8 14 9 24 4 9 -5 24 -8 32 -7 8 1 21 -4 29 -9 12 -9 13 -8 6 3 -6
11 -2 13 19 7 21 -5 26 -4 21 6 -4 7 1 4 9 -6 9 -11 16 -15 16 -8 0 13 119 14
137 0 7 -6 14 -4 19 3 5 8 3 9 -6 4 -9 -5 -11 -4 -6 4 4 6 12 8 18 5 18 -11
98 -13 98 -2 0 5 5 6 10 3 6 -4 8 -11 4 -16 -3 -6 3 -5 14 2 17 11 24 10 38
-2 15 -11 16 -11 9 0 -6 11 -2 13 19 7 21 -5 26 -4 20 6 -4 7 2 5 13 -5 16
-14 23 -15 29 -6 5 8 3 10 -6 4 -9 -5 -11 -4 -6 4 4 6 12 8 18 5 20 -12 108
-12 101 0 -5 8 -3 8 8 1 8 -6 28 -10 44 -9 17 1 35 -3 42 -8 7 -6 14 -5 19 3
5 8 3 9 -6 4 -9 -5 -11 -4 -6 3 5 8 14 9 24 4 9 -5 52 -8 95 -7 50 1 77 -2 77
-9 0 -8 2 -8 8 0 9 14 144 13 154 -1 5 -6 8 -6 8 2 0 14 89 15 107 1 7 -6 14
-4 19 3 5 8 3 9 -6 4 -9 -5 -11 -4 -6 4 4 6 12 8 18 5 18 -11 98 -13 98 -2 0
5 5 6 10 3 6 -4 8 -11 4 -16 -3 -6 3 -5 14 2 17 11 24 10 38 -2 15 -11 16 -11
9 0 -6 11 -2 13 19 7 18 -4 25 -3 21 3 -3 7 0 8 9 5 9 -3 13 -10 10 -16 -3 -5
3 -4 14 3 17 11 24 10 38 -2 15 -11 16 -11 9 0 -6 11 -2 13 19 7 21 -5 26 -4
20 6 -4 7 3 4 16 -7 13 -11 20 -14 16 -7 -6 10 2 12 36 11 23 -1 48 -6 55 -11
7 -6 14 -4 19 3 5 8 3 9 -6 4 -9 -5 -11 -4 -6 3 5 8 13 9 24 3 9 -5 28 -7 42
-6 14 1 31 -3 39 -9 12 -9 13 -8 6 3 -6 11 -2 13 19 7 21 -5 26 -4 20 6 -4 7
2 5 13 -5 16 -14 23 -15 29 -6 5 8 3 10 -6 4 -9 -5 -11 -4 -6 3 4 8 14 9 24 4
9 -5 24 -8 32 -7 8 1 21 -4 29 -9 12 -9 13 -8 6 3 -6 11 -2 13 19 7 21 -5 26
-4 21 6 -4 7 1 4 9 -6 9 -11 16 -15 16 -8 0 13 119 14 137 0 7 -6 14 -4 19 3
5 8 3 9 -6 4 -9 -5 -11 -4 -6 4 4 6 12 8 18 5 18 -11 98 -13 98 -2 0 5 5 6 10
3 6 -4 8 -11 4 -16 -3 -6 3 -5 14 2 17 11 24 10 38 -2 15 -11 16 -11 9 0 -6
11 -2 13 19 7 18 -4 25 -3 21 3 -3 7 0 8 9 5 9 -3 13 -10 10 -16 -3 -5 3 -4
14 3 17 11 24 10 38 -2 15 -11 16 -11 9 0 -6 11 -2 13 19 7 21 -5 26 -4 20 6
-4 7 3 4 16 -7 13 -11 20 -14 16 -7 -6 10 2 12 36 11 23 -1 48 -6 55 -11 7 -6
14 -4 19 3 5 8 3 9 -6 4 -9 -5 -11 -4 -6 3 5 8 13 9 24 3 9 -5 28 -7 42 -6 14
1 31 -3 39 -9 12 -9 13 -8 6 3 -6 11 -2 13 19 7 21 -5 26 -4 20 6 -4 7 2 5 13
-5 16 -14 23 -15 29 -6 5 8 3 10 -6 4 -9 -5 -11 -4 -6 3 4 8 14 9 24 4 9 -5
24 -8 32 -7 8 1 21 -4 29 -9 12 -9 13 -8 6 3 -6 11 -2 13 19 7 21 -5 26 -4 21
6 -4 7 1 4 9 -6 9 -11 16 -15 16 -8 0 13 119 14 137 0 7 -6 14 -4 19 3 5 8 3
9 -6 4 -9 -5 -11 -4 -6 4 4 6 12 8 18 5 18 -11 98 -13 98 -2 0 5 5 6 10 3 6
-4 8 -11 4 -16 -3 -6 3 -5 14 2 17 11 24 10 38 -2 15 -11 16 -11 9 0 -6 11 -2
13 19 7 20 -5 26 -3 21 5 -6 8 -2 8 12 0 11 -6 23 -7 27 -4 3 3 6 0 6 -8 0
-12 2 -12 9 0 8 12 14 13 37 2 23 -10 26 -10 16 2 -10 12 -8 13 13 9 14 -2 28
-9 31 -14 3 -5 12 -4 20 3 11 9 17 9 28 0 11 -9 16 -9 22 0 5 8 3 9 -6 4 -9
-6 -11 -4 -5 4 5 9 10 10 18 2 13 -13 30 -15 23 -2 -4 5 3 7 14 4 11 -3 17
-10 13 -17 -4 -6 1 -5 10 3 14 11 20 11 34 0 12 -10 15 -10 9 -1 -5 9 1 12 26
10 18 -1 38 -5 45 -10 7 -6 14 -4 19 3 5 8 3 9 -6 4 -9 -5 -11 -4 -6 4 4 6 12
8 18 5 18 -11 98 -13 98 -2 0 5 5 6 10 3 6 -4 8 -11 4 -16 -3 -6 3 -5 14 2 17
11 24 10 38 -2 15 -11 16 -11 9 0 -6 11 -2 13 19 7 18 -4 25 -3 21 3 -3 7 0 8
9 5 9 -3 13 -10 10 -16 -3 -5 3 -4 14 3 17 11 24 10 38 -2 15 -11 16 -11 9 0
-6 11 -2 13 19 7 21 -5 26 -4 20 6 -4 7 3 4 16 -7 13 -11 20 -14 16 -7 -6 10
2 12 36 11 23 -1 48 -6 55 -11 7 -6 14 -4 19 3 5 8 3 9 -6 4 -9 -5 -11 -4 -6
3 5 8 13 9 24 3 9 -5 28 -7 42 -6 14 1 31 -3 39 -9 12 -9 13 -8 6 3 -6 11 -2
13 19 7 21 -5 26 -4 20 6 -4 7 2 5 13 -5 16 -14 23 -15 29 -6 5 8 3 10 -6 4
-9 -5 -11 -4 -6 3 4 8 14 9 24 4 9 -5 24 -8 32 -7 8 1 21 -4 29 -9 12 -9 13
-8 6 3 -6 11 -2 13 19 7 21 -5 26 -4 21 6 -4 7 1 4 9 -6 9 -11 16 -15 16 -8 0
13 119 14 137 0 7 -6 14 -4 19 3 5 8 3 9 -6 4 -9 -5 -11 -4 -6 4 4 6 12 8 18
5 18 -11 98 -13 98 -2 0 5 5 6 10 3 6 -4 8 -11 4 -16 -3 -6 3 -5 14 2 17 11
24 10 38 -2 15 -11 16 -11 9 0 -6 11 -2 13 19 7 18 -4 25 -3 21 3 -3 7 0 8 9
5 9 -3 13 -10 10 -16 -3 -5 3 -4 14 3 17 11 24 10 38 -2 15 -11 16 -11 9 0 -6
11 -2 13 19 7 21 -5 26 -4 20 6 -4 7 3 4 16 -7 13 -11 20 -14 16 -7 -6 10 2
12 36 11 23 -1 48 -6 55 -11 7 -6 14 -4 19 3 5 8 3 9 -6 4 -9 -5 -11 -4 -6 3
5 8 13 9 24 3 9 -5 28 -7 42 -6 14 1 31 -3 39 -9 12 -9 13 -8 6 3 -6 11 -2 13
19 7 21 -5 26 -4 20 6 -4 7 2 5 13 -5 16 -14 23 -15 29 -6 5 8 3 10 -6 4 -9
-5 -11 -4 -6 3 4 8 14 9 24 4 9 -5 24 -8 32 -7 8 1 21 -4 29 -9 12 -9 13 -8 6
3 -6 11 -2 13 19 7 21 -5 26 -4 21 6 -4 7 1 4 9 -6 9 -11 16 -15 16 -8 0 13
119 14 137 0 7 -6 14 -4 19 3 5 8 3 9 -6 4 -9 -5 -11 -4 -6 4 4 6 12 8 18 5
18 -11 98 -13 98 -2 0 5 5 6 10 3 6 -4 8 -11 4 -16 -3 -6 3 -5 14 2 17 11 24
10 38 -2 15 -11 16 -11 9 0 -6 11 -2 13 19 7 21 -5 26 -4 20 6 -4 7 2 5 13 -5
16 -14 23 -15 29 -6 5 8 3 10 -6 4 -9 -5 -11 -4 -6 4 4 6 12 8 18 5 20 -12
108 -12 101 0 -5 8 -3 8 8 1 8 -6 28 -10 44 -9 17 1 35 -3 42 -8 7 -6 14 -5
19 3 5 8 3 9 -6 4 -9 -5 -11 -4 -6 4 4 6 12 8 18 5 18 -11 98 -13 98 -2 0 5 5
6 10 3 6 -4 7 -12 3 -18 -4 -7 1 -6 11 2 14 12 21 13 38 2 15 -9 18 -9 13 0
-6 9 -1 10 19 5 21 -5 26 -4 20 6 -5 10 -4 11 7 1 17 -17 32 -17 23 0 -6 8 -3
8 9 -1 10 -9 24 -11 39 -6 13 4 39 8 58 9 19 0 34 5 33 11 -1 6 16 9 38 8 27
-1 42 3 46 12 3 8 9 11 14 8 6 -3 16 0 24 6 8 7 15 9 15 5 0 -4 7 -2 15 5 8 6
20 8 26 4 8 -4 9 -3 5 4 -5 8 0 12 14 12 11 0 23 6 26 14 3 8 11 13 19 10 7
-3 15 2 18 10 4 9 13 16 21 16 7 0 17 7 20 16 3 8 10 13 15 9 6 -3 15 4 21 15
6 11 15 18 21 15 5 -4 9 2 9 11 0 10 3 15 6 11 6 -6 94 77 94 89 0 4 11 17 26
30 14 13 22 24 18 24 -4 0 3 9 16 20 13 11 20 20 17 20 -4 0 1 8 11 19 9 10
29 32 43 49 15 17 30 28 33 24 4 -3 4 1 0 11 -3 10 -1 17 5 17 6 0 11 5 11 10
0 14 43 56 53 52 5 -1 6 2 2 8 -3 5 -1 10 5 10 6 0 9 4 6 8 -3 5 3 15 12 24 9
9 28 30 41 47 13 17 28 28 35 24 6 -4 4 2 -4 12 -8 10 -10 17 -5 14 9 -5 63
42 57 49 -5 6 -1 25 5 19 3 -4 17 9 31 29 33 49 59 74 68 66 4 -4 4 -2 0 5 -6
11 11 37 51 78 7 7 10 15 7 18 -3 3 4 8 15 12 12 3 19 10 16 15 -3 5 5 16 17
24 12 9 19 16 15 16 -6 0 19 33 51 66 7 8 11 14 8 14 -3 0 8 15 24 33 62 67
70 77 70 87 0 5 4 10 9 10 4 0 20 17 34 38 14 20 37 50 51 66 14 16 26 32 26
35 0 3 16 23 35 43 19 20 35 40 35 44 0 4 10 17 23 29 33 32 58 65 49 65 -4 1
3 6 15 13 21 12 23 15 23 38 0 5 5 7 10 4 6 -3 10 1 10 9 0 9 4 16 9 16 5 0
19 16 31 35 12 19 34 48 48 64 15 16 36 41 47 55 22 29 45 58 76 94 10 12 18
23 16 25 -1 1 9 15 23 30 54 59 60 67 53 67 -5 1 2 6 14 13 12 7 21 14 20 17
-3 11 69 99 81 100 7 0 10 5 7 10 -3 6 -1 10 6 10 7 0 10 2 7 5 -5 5 22 42 65
86 9 11 17 24 17 29 0 6 5 10 10 10 6 0 10 4 10 10 0 5 14 23 31 40 18 16 29
30 26 30 -3 0 4 10 16 23 40 42 66 80 61 89 -3 5 -2 7 3 6 11 -4 53 39 46 46
-4 3 -1 6 6 6 7 0 9 5 6 10 -3 6 1 10 9 10 9 0 16 4 16 10 0 5 9 20 19 32 32
37 54 65 81 100 14 18 33 40 43 50 9 10 15 18 12 18 -3 0 8 14 25 31 16 17 27
36 23 42 -3 6 -1 7 5 3 13 -8 35 28 24 39 -4 3 -1 5 6 3 8 -2 19 6 25 17 7 11
20 26 30 33 9 7 17 19 17 27 0 8 10 21 22 29 12 9 19 16 15 16 -4 0 7 14 25
30 17 17 28 30 24 30 -4 0 7 14 24 30 17 17 28 30 25 30 -7 0 11 23 44 56 13
13 20 24 15 24 -5 0 2 7 14 16 12 8 20 20 17 25 -4 5 1 9 9 9 9 0 16 7 16 15
0 8 3 15 8 15 4 0 16 13 27 29 10 16 24 27 29 24 5 -4 7 1 3 10 -3 10 -2 17 4
17 5 0 14 11 21 25 6 13 14 22 19 20 4 -3 10 4 14 15 4 11 11 18 16 14 5 -3 9
-2 8 3 -3 20 2 34 11 28 6 -3 10 0 10 8 0 18 56 77 66 69 4 -4 4 -2 1 5 -4 6
0 18 8 26 8 9 15 21 15 27 0 6 5 8 10 5 6 -3 10 1 10 9 0 9 4 16 9 16 5 0 13
9 16 20 3 11 13 20 21 20 8 0 12 5 9 10 -3 6 -1 10 4 10 6 0 11 6 11 13 0 7 9
18 20 25 11 7 20 17 20 23 0 7 11 22 25 35 14 13 25 28 25 34 0 5 5 10 10 10
6 0 10 7 10 16 0 8 5 12 10 9 6 -3 10 -2 10 4 0 5 8 17 18 27 9 10 17 21 17
25 0 4 10 16 23 27 12 11 22 23 22 28 0 5 12 20 25 33 14 13 25 29 25 36 0 7
7 16 15 19 9 3 21 19 26 36 6 16 15 30 21 30 5 0 6 5 3 10 -3 6 4 25 17 43 13
17 22 33 20 35 -7 7 0 32 8 27 6 -4 9 3 7 17 -2 12 2 29 10 36 10 10 11 18 3
27 -7 8 -7 14 -1 17 17 6 24 89 25 335 0 134 5 243 10 243 5 0 2 7 -5 17 -11
13 -11 17 -1 20 6 3 9 10 5 16 -11 17 -9 51 2 59 6 5 5 8 -4 8 -11 0 -11 3 0
17 8 9 9 14 3 10 -7 -4 -15 0 -18 9 -3 8 -2 12 3 9 5 -3 12 -1 16 5 3 5 3 10
-2 10 -4 0 -8 13 -9 30 -1 16 3 27 8 23 6 -3 4 5 -2 18 -10 17 -10 24 -1 27 6
2 8 8 5 14 -4 6 -7 83 -7 172 1 105 -3 166 -11 175 -8 11 -8 13 1 8 6 -4 14
-3 18 3 3 5 3 10 -2 10 -4 0 -8 13 -9 30 -1 16 3 27 8 23 6 -3 4 5 -2 18 -10
17 -10 24 -1 27 6 2 8 8 5 14 -11 17 -10 398 1 398 7 0 7 3 0 8 -13 9 -15 102
-2 102 5 0 3 7 -4 17 -11 13 -11 17 -1 20 6 3 9 10 5 16 -11 17 -9 51 2 59 6
5 5 8 -4 8 -11 0 -11 3 0 17 8 9 9 14 3 10 -7 -4 -15 0 -18 9 -3 8 -2 12 3 9
5 -3 12 -1 16 5 3 5 3 10 -2 10 -4 0 -8 13 -9 30 -1 16 3 27 8 23 6 -3 4 5 -2
18 -10 17 -10 24 -1 27 6 2 8 8 5 14 -4 6 -7 83 -7 172 1 105 -3 166 -11 175
-8 11 -8 13 1 8 6 -4 14 -3 18 3 3 5 3 10 -2 10 -4 0 -8 13 -9 30 -1 16 3 27
8 23 6 -3 4 5 -2 18 -10 17 -10 24 -1 27 6 2 8 8 5 14 -10 15 -10 508 0 508 5
0 2 7 -5 17 -11 13 -11 17 -1 20 6 3 9 10 5 16 -11 17 -9 51 2 59 6 5 5 8 -4
8 -11 0 -11 3 0 17 8 9 9 14 3 10 -7 -4 -15 0 -18 9 -3 8 -2 12 3 9 5 -3 12
-1 16 5 3 5 3 10 -2 10 -4 0 -8 13 -9 30 -1 16 3 27 8 23 6 -3 4 5 -2 18 -10
17 -10 24 -1 27 6 2 8 8 5 14 -4 6 -7 83 -7 172 1 105 -3 166 -11 175 -8 11
-8 13 1 8 6 -4 14 -3 18 3 3 5 3 10 -2 10 -4 0 -8 13 -9 30 -1 16 3 27 8 23 6
-3 4 5 -2 18 -10 17 -10 24 -1 27 6 2 8 8 5 14 -11 17 -10 398 1 398 7 0 7 3
0 8 -13 9 -15 102 -2 102 5 0 3 7 -4 17 -11 13 -11 17 -1 20 6 3 9 10 5 16
-11 17 -9 51 2 59 6 5 5 8 -4 8 -11 0 -11 3 0 17 8 9 9 14 3 10 -7 -4 -15 0
-18 9 -3 8 -2 12 3 9 5 -3 12 -1 16 5 3 5 3 10 -2 10 -4 0 -8 13 -9 30 -1 16
3 27 8 23 6 -3 4 5 -2 18 -10 17 -10 24 -1 27 6 2 8 8 5 14 -4 6 -7 83 -7 172
1 105 -3 166 -11 175 -8 11 -8 13 1 8 6 -4 14 -3 18 3 3 5 3 10 -2 10 -4 0 -8
13 -9 30 -1 16 3 27 8 23 6 -3 4 5 -2 18 -10 17 -10 24 -1 27 6 2 8 8 5 14
-10 15 -10 508 0 508 5 0 2 7 -5 17 -11 13 -11 17 -1 20 6 3 9 10 5 16 -11 17
-9 51 2 59 6 5 5 8 -4 8 -11 0 -11 3 0 17 8 9 9 14 3 10 -7 -4 -15 0 -18 9 -3
8 -2 12 3 9 5 -3 12 -1 16 5 3 5 3 10 -2 10 -4 0 -8 13 -9 30 -1 16 3 27 8 23
6 -3 4 5 -2 18 -10 17 -10 24 -1 27 6 2 8 8 5 14 -4 6 -7 83 -7 172 1 105 -3
166 -11 175 -8 11 -8 13 1 8 6 -4 14 -3 18 3 3 5 3 10 -2 10 -4 0 -8 13 -9 30
-1 16 3 27 8 23 6 -3 4 5 -2 18 -10 17 -10 24 -1 27 6 2 8 8 5 14 -11 17 -10
398 1 398 7 0 7 3 0 8 -13 9 -15 102 -2 102 5 0 3 7 -4 17 -11 13 -11 17 -1
20 6 3 9 10 5 16 -11 17 -9 51 2 59 6 5 5 8 -4 8 -11 0 -11 3 0 17 8 9 9 14 3
10 -7 -4 -15 0 -18 9 -3 8 -2 12 3 9 5 -3 12 -1 16 5 3 5 3 10 -2 10 -4 0 -8
13 -9 30 -1 16 3 27 8 23 6 -3 4 5 -2 18 -10 17 -10 24 -1 27 6 2 8 8 5 14 -4
6 -7 83 -7 172 1 105 -3 166 -11 175 -8 11 -8 13 1 8 6 -4 14 -3 18 3 3 5 3
10 -2 10 -4 0 -8 13 -9 30 -1 16 3 27 8 23 6 -3 4 5 -2 18 -10 17 -10 24 -1
27 6 2 8 8 5 14 -10 15 -10 508 0 508 5 0 2 7 -5 17 -11 13 -11 17 -1 20 6 3
9 10 5 16 -11 17 -9 51 2 59 6 5 5 8 -4 8 -11 0 -11 3 0 17 8 9 9 14 3 10 -7
-4 -15 0 -18 9 -3 8 -2 12 3 9 5 -3 12 -1 16 5 3 5 3 10 -2 10 -4 0 -8 13 -9
30 -1 16 3 27 8 23 6 -3 4 5 -2 18 -10 17 -10 24 -1 27 6 2 8 8 5 14 -4 6 -7
83 -7 172 1 105 -3 166 -11 175 -8 11 -8 13 1 8 6 -4 14 -3 18 3 3 5 3 10 -2
10 -4 0 -8 13 -9 30 -1 16 3 27 8 23 6 -3 4 5 -2 18 -10 17 -10 24 -1 27 6 2
8 8 5 14 -11 17 -10 398 1 398 7 0 7 3 0 8 -13 9 -15 102 -2 102 5 0 3 7 -4
17 -11 13 -11 17 -1 20 6 3 9 10 5 16 -11 17 -9 51 2 59 6 5 5 8 -4 8 -11 0
-11 3 0 17 8 9 9 14 3 10 -7 -4 -15 0 -18 9 -3 8 -2 12 3 9 5 -3 12 -1 16 5 3
5 3 10 -2 10 -4 0 -8 13 -9 30 -1 16 3 27 8 23 6 -3 4 5 -2 18 -10 17 -10 24
-1 27 6 2 8 8 5 14 -4 6 -7 83 -7 172 1 105 -3 166 -11 175 -8 11 -8 13 1 8 6
-4 14 -3 18 3 3 5 3 10 -2 10 -4 0 -8 13 -9 30 -1 16 3 27 8 23 6 -3 4 5 -2
18 -10 17 -10 24 -1 27 6 2 8 8 5 14 -10 15 -10 508 0 508 5 0 2 7 -5 17 -11
13 -11 17 -1 20 6 3 9 10 5 16 -11 17 -9 51 2 59 6 5 5 8 -4 8 -11 0 -11 3 0
17 8 9 9 14 3 10 -7 -4 -15 0 -18 9 -3 8 -2 12 3 9 5 -3 12 -1 16 5 3 5 3 10
-2 10 -4 0 -8 13 -9 30 -1 16 3 27 8 23 6 -3 4 5 -2 18 -10 17 -10 24 -1 27 6
2 8 8 5 14 -4 6 -7 83 -7 172 1 105 -3 166 -11 175 -8 11 -8 13 1 8 6 -4 14
-3 18 3 3 5 3 10 -2 10 -4 0 -8 13 -9 30 -1 16 3 27 8 23 6 -3 4 5 -2 18 -10
17 -10 24 -1 27 6 2 8 8 5 14 -10 16 -10 498 0 498 5 0 1 10 -10 22 -10 12
-14 18 -7 15 6 -4 14 -3 18 3 3 5 1 10 -6 10 -7 0 -10 11 -7 29 2 17 2 28 -2
26 -3 -2 -12 5 -19 17 -10 16 -10 19 1 13 7 -5 -7 11 -32 33 -25 23 -51 42
-57 42 -7 0 -13 5 -13 11 0 5 -4 8 -9 5 -5 -4 -21 -2 -36 4 -19 7 -24 7 -19
-2 4 -7 3 -8 -4 -4 -19 12 -53 16 -47 5z"/>
</g>
</svg>
